<svg width="40" height="40" viewBox="0 0 40 40" fill="none" xmlns="http://www.w3.org/2000/svg">
<rect width="40" height="40" rx="20" fill="#727AE4"/>
<g clip-path="url(#clip0_576_35187)">
<path d="M26.9908 12.7448C26.7845 12.1836 26.4112 11.699 25.9212 11.3564C25.4312 11.0137 24.848 10.8294 24.25 10.8281H15.75C15.1576 10.8277 14.5792 11.008 14.092 11.3449C13.6047 11.6819 13.2319 12.1595 13.0233 12.714L11.2242 17.2448C10.413 19.4698 9.9987 21.8199 10 24.1881V24.6615C10 25.766 10.8954 26.6615 12 26.6615H12.5V27.4948C12.5 28.4153 13.2462 29.1615 14.1667 29.1615C15.0871 29.1615 15.8333 28.4153 15.8333 27.4948V26.6615H24.1667V27.4948C24.1667 28.4153 24.9129 29.1615 25.8333 29.1615C26.7538 29.1615 27.5 28.4153 27.5 27.4948V26.6615H28C29.1046 26.6615 30 25.766 30 24.6615V24.1881C30.0005 21.8072 29.5819 19.4448 28.7634 17.209L26.9908 12.7448ZM24.1667 22.9115C24.1667 22.5799 24.2984 22.262 24.5328 22.0276C24.7672 21.7932 25.0852 21.6615 25.4167 21.6615C25.7482 21.6615 26.0661 21.7932 26.3006 22.0276C26.535 22.262 26.6667 22.5799 26.6667 22.9115C26.6667 23.243 26.535 23.5609 26.3006 23.7954C26.0661 24.0298 25.7482 24.1615 25.4167 24.1615C25.0852 24.1615 24.7672 24.0298 24.5328 23.7954C24.2984 23.5609 24.1667 23.243 24.1667 22.9115ZM13.5592 18.1323L15.36 13.6023C15.3892 13.5222 15.4422 13.453 15.5119 13.4039C15.5817 13.3549 15.6648 13.3284 15.75 13.3281H24.25C24.3413 13.3304 24.4295 13.3614 24.5021 13.4168C24.5746 13.4722 24.6279 13.549 24.6542 13.6365L26.4275 18.0981C26.555 18.449 26.665 18.804 26.7658 19.1615H13.2317C13.3333 18.8148 13.4367 18.4706 13.5592 18.1323ZM14.5833 24.1615C14.2518 24.1615 13.9339 24.0298 13.6995 23.7954C13.465 23.5609 13.3333 23.243 13.3333 22.9115C13.3333 22.5799 13.465 22.262 13.6995 22.0276C13.9339 21.7932 14.2518 21.6615 14.5833 21.6615C14.9149 21.6615 15.2328 21.7932 15.4672 22.0276C15.7016 22.262 15.8333 22.5799 15.8333 22.9115C15.8333 23.243 15.7016 23.5609 15.4672 23.7954C15.2328 24.0298 14.9149 24.1615 14.5833 24.1615Z" fill="white"/>
</g>
<defs>
<clipPath id="clip0_576_35187">
<rect width="20" height="20" fill="white" transform="translate(10 10)"/>
</clipPath>
</defs>
</svg>
