<svg width="40" height="40" viewBox="0 0 40 40" fill="none" xmlns="http://www.w3.org/2000/svg">
<rect width="40" height="40" rx="20" fill="#727AE4"/>
<path d="M20 10C18.0222 10 16.0888 10.5865 14.4443 11.6853C12.7998 12.7841 11.5181 14.3459 10.7612 16.1732C10.0043 18.0004 9.8063 20.0111 10.1922 21.9509C10.578 23.8907 11.5304 25.6725 12.9289 27.0711C14.3275 28.4696 16.1093 29.422 18.0491 29.8078C19.9889 30.1937 21.9996 29.9957 23.8268 29.2388C25.6541 28.4819 27.2159 27.2002 28.3147 25.5557C29.4135 23.9112 30 21.9778 30 20C29.9971 17.3487 28.9426 14.8068 27.0679 12.9321C25.1932 11.0574 22.6513 10.0029 20 10V10ZM22.685 15.8333H17.315C18.0223 14.4369 18.9265 13.1493 20 12.01C21.0739 13.149 21.9781 14.4366 22.685 15.8333ZM23.3517 17.5C23.6078 18.3089 23.7415 19.1515 23.7483 20C23.7415 20.8484 23.6078 21.6911 23.3517 22.5H16.6467C16.3905 21.6911 16.2568 20.8484 16.25 20C16.2568 19.1515 16.3905 18.3089 16.6467 17.5H23.3517ZM17.8333 11.9633C16.8731 13.1382 16.0805 14.4406 15.4783 15.8333H12.7942C13.899 13.9304 15.7097 12.5398 17.8333 11.9633ZM11.6667 20C11.6666 19.152 11.7961 18.3089 12.0508 17.5H14.9167C14.7006 18.316 14.5886 19.1559 14.5833 20C14.5886 20.844 14.7006 21.684 14.9167 22.5H12.0508C11.7961 21.6911 11.6666 20.848 11.6667 20ZM12.7942 24.1667H15.4783C16.0805 25.5594 16.8731 26.8618 17.8333 28.0367C15.7097 27.4602 13.899 26.0696 12.7942 24.1667ZM17.315 24.1667H22.685C21.9777 25.5631 21.0735 26.8507 20 27.99C18.9261 26.851 18.0219 25.5634 17.315 24.1667ZM22.1708 28.0367C23.1297 26.8616 23.9208 25.5592 24.5217 24.1667H27.2058C26.1019 26.0688 24.2929 27.4592 22.1708 28.0367ZM28.3333 20C28.3334 20.848 28.2039 21.6911 27.9492 22.5H25.0833C25.2994 21.684 25.4114 20.844 25.4167 20C25.4114 19.1559 25.2994 18.316 25.0833 17.5H27.9475C28.2028 18.3088 28.3329 19.1519 28.3333 20ZM24.5217 15.8333C23.9208 14.4408 23.1297 13.1384 22.1708 11.9633C24.2929 12.5408 26.1019 13.9312 27.2058 15.8333H24.5217Z" fill="white" stroke="white" stroke-width="0.401123"/>
</svg>
