<svg width="40" height="40" viewBox="0 0 40 40" fill="none" xmlns="http://www.w3.org/2000/svg">
<rect width="40" height="40" rx="12" fill="#727AE4"/>
<path fill-rule="evenodd" clip-rule="evenodd" d="M14.9361 11.4297C13.8178 11.4297 12.9112 12.3363 12.9112 13.4546C12.9112 14.573 13.8178 15.4796 14.9361 15.4796H17.9229V21.554C16.7845 21.4378 15.8198 21.2287 15.0745 20.9693C14.493 20.767 14.0698 20.5427 13.8024 20.3277C13.5251 20.1049 13.4871 19.9542 13.4871 19.8991C13.4871 19.8207 13.5558 19.5799 14.1303 19.2745C14.6782 18.9831 15.5604 18.7077 16.8383 18.5095C17.1146 18.4667 17.3038 18.208 17.261 17.9317C17.2182 17.6554 16.9595 17.4662 16.6832 17.509C15.3525 17.7153 14.3448 18.0137 13.6549 18.3805C12.9916 18.7332 12.4746 19.2351 12.4746 19.8991C12.4746 20.401 12.7879 20.8114 13.1682 21.1169C13.5582 21.4304 14.0987 21.7018 14.7418 21.9256C15.5957 22.2227 16.6745 22.4509 17.9229 22.5715V26.5493C17.9229 27.6676 18.8295 28.5742 19.9479 28.5742C21.0662 28.5742 21.9728 27.6676 21.9728 26.5493V22.5756C23.2453 22.4562 24.3496 22.2263 25.2237 21.9263C25.8745 21.7029 26.4228 21.4322 26.8189 21.1199C27.2035 20.8166 27.5267 20.4058 27.5267 19.8991C27.5267 19.569 27.375 19.2774 27.1652 19.0404C26.9554 18.8035 26.6637 18.5922 26.3124 18.4057C25.609 18.0322 24.5868 17.7162 23.2506 17.509C22.9743 17.4662 22.7156 17.6554 22.6728 17.9317C22.63 18.208 22.8192 18.4667 23.0955 18.5095C24.3679 18.7068 25.2694 18.9983 25.8376 19.2999C26.122 19.4509 26.3031 19.5941 26.4071 19.7116C26.5111 19.829 26.5142 19.8918 26.5142 19.8991C26.5142 19.9494 26.4776 20.0997 26.192 20.3248C25.918 20.5409 25.4857 20.7659 24.895 20.9686C24.1284 21.2317 23.137 21.4431 21.9728 21.5584V15.4796H24.9596C26.078 15.4796 26.9846 14.573 26.9846 13.4546C26.9846 12.3363 26.078 11.4297 24.9596 11.4297H19.9479H14.9361Z" fill="white"/>
</svg>
