<svg width="16" height="18" viewBox="0 0 16 18" fill="none" xmlns="http://www.w3.org/2000/svg">
<path fill-rule="evenodd" clip-rule="evenodd" d="M2.93613 0.429688C1.81779 0.429688 0.911189 1.33629 0.911189 2.45463C0.911189 3.57298 1.81779 4.47958 2.93613 4.47958H5.92293V10.554C4.78446 10.4378 3.81984 10.2287 3.07455 9.96933C2.49302 9.767 2.06985 9.54267 1.80241 9.32774C1.52514 9.10492 1.48708 8.95416 1.48708 8.89911C1.48708 8.82072 1.55581 8.57993 2.13027 8.27445C2.67823 7.98307 3.56043 7.70767 4.83831 7.50954C5.11459 7.46671 5.30384 7.20801 5.261 6.93172C5.21817 6.65544 4.95947 6.46619 4.68318 6.50902C3.35252 6.71534 2.34477 7.01367 1.65491 7.38051C0.991566 7.73325 0.474609 8.23515 0.474609 8.89911C0.474609 9.40099 0.787911 9.81135 1.16816 10.1169C1.55824 10.4304 2.09874 10.7018 2.74183 10.9256C3.59571 11.2227 4.6745 11.4509 5.92293 11.5715V15.5493C5.92293 16.6676 6.82953 17.5742 7.94787 17.5742C9.06622 17.5742 9.97282 16.6676 9.97282 15.5493V11.5756C11.2453 11.4562 12.3496 11.2263 13.2237 10.9263C13.8745 10.7029 14.4228 10.4322 14.8189 10.1199C15.2035 9.81662 15.5267 9.40579 15.5267 8.89911C15.5267 8.56904 15.375 8.27741 15.1652 8.04041C14.9554 7.80349 14.6637 7.59219 14.3124 7.40566C13.609 7.03223 12.5868 6.71619 11.2506 6.50902C10.9743 6.46619 10.7156 6.65544 10.6728 6.93172C10.63 7.20801 10.8192 7.46671 11.0955 7.50954C12.3679 7.70681 13.2694 7.99826 13.8376 8.29992C14.122 8.45093 14.3031 8.59408 14.4071 8.71158C14.5111 8.829 14.5142 8.89176 14.5142 8.89911C14.5142 8.94936 14.4776 9.09965 14.192 9.32481C13.918 9.54091 13.4857 9.76591 12.895 9.96864C12.1284 10.2317 11.137 10.4431 9.97282 10.5584V4.47958H12.9596C14.078 4.47958 14.9846 3.57298 14.9846 2.45463C14.9846 1.33629 14.078 0.429688 12.9596 0.429688H7.94787H2.93613Z" fill="white"/>
</svg>
