<svg width="48" height="48" viewBox="0 0 48 48" fill="none" xmlns="http://www.w3.org/2000/svg">
<g clip-path="url(#clip0_550_36033)">
<path d="M24 48C37.2548 48 48 37.2548 48 24C48 10.7452 37.2548 0 24 0C10.7452 0 0 10.7452 0 24C0 37.2548 10.7452 48 24 48Z" fill="#003399"/>
<path d="M23.9986 9.39844L24.7757 11.7899H27.2901L25.2558 13.2679L26.0329 15.6593L23.9986 14.1813L21.9642 15.6593L22.7413 13.2679L20.707 11.7899H23.2215L23.9986 9.39844Z" fill="#FFDA44"/>
<path d="M13.6695 13.6754L15.9101 14.8169L17.6881 13.0391L17.2946 15.5225L19.5351 16.6641L17.0516 17.0575L16.6582 19.5411L15.5166 17.3006L13.0332 17.694L14.8112 15.9161L13.6695 13.6754Z" fill="#FFDA44"/>
<path d="M9.39062 24.0025L11.7821 23.2254V20.7109L13.26 22.7453L15.6515 21.9682L14.1734 24.0025L15.6515 26.0368L13.26 25.2598L11.7821 27.2941V24.7796L9.39062 24.0025Z" fill="#FFDA44"/>
<path d="M13.6695 34.3343L14.8111 32.0937L13.0332 30.3157L15.5167 30.7093L16.6581 28.4688L17.0516 30.9523L19.535 31.3457L17.2948 32.4873L17.6881 34.9707L15.9101 33.1927L13.6695 34.3343Z" fill="#FFDA44"/>
<path d="M23.9986 38.6123L23.2214 36.2208H20.707L22.7414 34.7428L21.9642 32.3516L23.9986 33.8294L26.0329 32.3516L25.2558 34.7428L27.2901 36.2208H24.7756L23.9986 38.6123Z" fill="#FFDA44"/>
<path d="M34.3303 34.3343L32.0898 33.1928L30.3117 34.9708L30.7052 32.4872L28.4648 31.3457L30.9483 30.9523L31.3417 28.4688L32.4832 30.7093L34.9666 30.3157L33.1886 32.0939L34.3303 34.3343Z" fill="#FFDA44"/>
<path d="M38.6084 24.0025L36.2169 24.7796V27.2941L34.7389 25.2597L32.3477 26.0368L33.8256 24.0025L32.3477 21.9682L34.739 22.7453L36.2169 20.7109V23.2255L38.6084 24.0025Z" fill="#FFDA44"/>
<path d="M34.3303 13.6753L33.1887 15.916L34.9667 17.6939L32.4831 17.3004L31.3417 19.5409L30.9483 17.0574L28.4648 16.6639L30.7052 15.5224L30.3117 13.0391L32.0899 14.8169L34.3303 13.6753Z" fill="#FFDA44"/>
</g>
<defs>
<clipPath id="clip0_550_36033">
<rect width="48" height="48" fill="white"/>
</clipPath>
</defs>
</svg>
