<svg width="24" height="24" viewBox="0 0 24 24" fill="none" xmlns="http://www.w3.org/2000/svg">
<path fill-rule="evenodd" clip-rule="evenodd" d="M8.36214 7.8421L8.39179 7.84228H11.3652V10.7724H3.86703V7.8421H8.36214ZM11.3652 12.065H5.07308V19.7791H11.3652V12.065ZM12.658 19.7791V12.065H18.9491V19.7791H12.658ZM12.658 10.7724V7.84232H15.6315L15.664 7.8421H20.1347V10.7724H20.1346H12.658ZM8.41333 2.92969C10.265 2.92969 11.3926 4.32168 12.0116 5.48508C12.6307 4.32168 13.7583 2.92969 15.6099 2.92969C16.9644 2.92969 18.0663 4.03157 18.0662 5.38602C18.0662 5.80652 17.961 6.20267 17.7756 6.54907H20.7811C21.1381 6.54907 21.4275 6.83843 21.4274 7.19546V11.4186C21.4274 11.7758 21.1381 12.065 20.781 12.065H20.2418V20.4255C20.2418 20.7825 19.9525 21.0719 19.5955 21.0719H4.42666C4.06963 21.0719 3.78027 20.7825 3.78027 20.4255V12.065H3.2206C2.86357 12.065 2.57422 11.7756 2.57422 11.4186V7.19546C2.57422 6.83843 2.86357 6.54907 3.2206 6.54907H6.24768C6.06231 6.20267 5.95703 5.8065 5.95703 5.38598C5.95703 4.03157 7.05891 2.92969 8.41333 2.92969ZM12.9315 6.54907H15.6639C16.2889 6.53218 16.7737 6.02738 16.7737 5.38602C16.7737 4.75536 16.2409 4.2225 15.6102 4.2225C14.1836 4.2225 13.3369 5.61933 12.9315 6.54907ZM8.35946 6.54907C7.73465 6.53218 7.24984 6.02738 7.24984 5.38598C7.24984 4.75532 7.7827 4.22246 8.41337 4.22246C9.83157 4.22246 10.6809 5.61937 11.0893 6.54907H8.35946Z" fill="white"/>
<path d="M8.39179 7.84228L8.38937 8.24228H8.39179V7.84228ZM8.36214 7.8421L8.36456 7.4421H8.36214V7.8421ZM11.3652 7.84228H11.7652V7.44228H11.3652V7.84228ZM11.3652 10.7724V11.1724H11.7652V10.7724H11.3652ZM3.86703 10.7724H3.46703V11.1724H3.86703V10.7724ZM3.86703 7.8421V7.4421H3.46703V7.8421H3.86703ZM11.3652 12.065H11.7652V11.665H11.3652V12.065ZM5.07308 12.065V11.665H4.67308V12.065H5.07308ZM5.07308 19.7791H4.67308V20.1791H5.07308V19.7791ZM11.3652 19.7791V20.1791H11.7652V19.7791H11.3652ZM12.658 19.7791H12.258V20.1791H12.658V19.7791ZM12.658 12.065V11.665H12.258V12.065H12.658ZM18.9491 12.065H19.3491V11.665H18.9491V12.065ZM18.9491 19.7791V20.1791H19.3491V19.7791H18.9491ZM12.658 10.7724H12.258V11.1724H12.658V10.7724ZM12.658 7.84232V7.44232H12.258V7.84232H12.658ZM15.6315 7.84232V8.24233L15.6341 8.24231L15.6315 7.84232ZM15.664 7.8421V7.44209L15.6614 7.44211L15.664 7.8421ZM20.1347 7.8421H20.5347V7.4421H20.1347V7.8421ZM20.1347 10.7724V11.1724H20.5347V10.7724H20.1347ZM12.0116 5.48508L11.6585 5.67297L12.0116 6.33663L12.3648 5.67297L12.0116 5.48508ZM18.0662 5.38602L17.6662 5.38601V5.38602H18.0662ZM17.7756 6.54907L17.4229 6.36035L17.1079 6.94907H17.7756V6.54907ZM21.4274 7.19546L21.0274 7.19542V7.19546H21.4274ZM20.2418 12.065V11.665H19.8418V12.065H20.2418ZM3.78027 12.065H4.18027V11.665H3.78027V12.065ZM6.24768 6.54907V6.94907H6.9154L6.60036 6.36035L6.24768 6.54907ZM15.6639 6.54907V6.94922L15.6747 6.94893L15.6639 6.54907ZM12.9315 6.54907L12.5648 6.3892L12.3207 6.94907H12.9315V6.54907ZM16.7737 5.38602L17.1737 5.38604V5.38602H16.7737ZM8.35946 6.54907L8.34864 6.94907H8.35946V6.54907ZM11.0893 6.54907V6.94907H11.7019L11.4555 6.3882L11.0893 6.54907ZM8.39421 7.44229L8.36456 7.44211L8.35972 8.24209L8.38937 8.24227L8.39421 7.44229ZM11.3652 7.44228H8.39179V8.24228H11.3652V7.44228ZM10.9652 7.84228V10.7724H11.7652V7.84228H10.9652ZM3.86703 11.1724H11.3652V10.3724H3.86703V11.1724ZM3.46703 7.8421V10.7724H4.26703V7.8421H3.46703ZM8.36214 7.4421H3.86703V8.2421H8.36214V7.4421ZM11.3652 11.665H5.07308V12.465H11.3652V11.665ZM4.67308 12.065V19.7791H5.47308V12.065H4.67308ZM5.07308 20.1791H11.3652V19.3791H5.07308V20.1791ZM10.9652 12.065V19.7791H11.7652V12.065H10.9652ZM13.058 19.7791V12.065H12.258V19.7791H13.058ZM18.9491 11.665H12.658V12.465H18.9491V11.665ZM19.3491 19.7791V12.065H18.5491V19.7791H19.3491ZM12.658 20.1791H18.9491V19.3791H12.658V20.1791ZM13.058 10.7724V7.84232H12.258V10.7724H13.058ZM15.6315 7.44232H12.658V8.24232H15.6315V7.44232ZM15.6614 7.44211L15.6288 7.44233L15.6341 8.24231L15.6667 8.24209L15.6614 7.44211ZM20.1347 7.4421H15.664V8.2421H20.1347V7.4421ZM20.5347 10.7724V7.8421H19.7347V10.7724H20.5347ZM20.1346 11.1724H20.1347V10.3724H20.1346V11.1724ZM12.658 11.1724H20.1346V10.3724H12.658V11.1724ZM12.3648 5.29719C11.7272 4.09899 10.4965 2.52969 8.41333 2.52969V3.32969C10.0336 3.32969 11.058 4.54437 11.6585 5.67297L12.3648 5.29719ZM15.6099 2.52969C13.5268 2.52969 12.2961 4.09899 11.6585 5.29719L12.3648 5.67297C12.9653 4.54437 13.9897 3.32969 15.6099 3.32969V2.52969ZM18.4662 5.38603C18.4663 3.81066 17.1853 2.52969 15.6099 2.52969V3.32969C16.7435 3.32969 17.6663 4.25248 17.6662 5.38601L18.4662 5.38603ZM18.1283 6.73779C18.3439 6.3348 18.4662 5.874 18.4662 5.38602H17.6662C17.6662 5.73904 17.578 6.07055 17.4229 6.36035L18.1283 6.73779ZM20.7811 6.14907H17.7756V6.94907H20.7811V6.14907ZM21.8274 7.1955C21.8275 6.61751 21.359 6.14907 20.7811 6.14907V6.94907C20.9172 6.94907 21.0274 7.05934 21.0274 7.19542L21.8274 7.1955ZM21.8274 11.4186V7.19546H21.0274V11.4186H21.8274ZM20.781 12.465C21.3589 12.465 21.8274 11.9968 21.8274 11.4186H21.0274C21.0274 11.5548 20.9172 11.665 20.781 11.665V12.465ZM20.2418 12.465H20.781V11.665H20.2418V12.465ZM20.6418 20.4255V12.065H19.8418V20.4255H20.6418ZM19.5955 21.4719C20.1734 21.4719 20.6418 21.0034 20.6418 20.4255H19.8418C19.8418 20.5616 19.7316 20.6719 19.5955 20.6719V21.4719ZM4.42666 21.4719H19.5955V20.6719H4.42666V21.4719ZM3.38027 20.4255C3.38027 21.0034 3.84871 21.4719 4.42666 21.4719V20.6719C4.29054 20.6719 4.18027 20.5616 4.18027 20.4255H3.38027ZM3.38027 12.065V20.4255H4.18027V12.065H3.38027ZM3.2206 12.465H3.78027V11.665H3.2206V12.465ZM2.17422 11.4186C2.17422 11.9965 2.64266 12.465 3.2206 12.465V11.665C3.08449 11.665 2.97422 11.5547 2.97422 11.4186H2.17422ZM2.17422 7.19546V11.4186H2.97422V7.19546H2.17422ZM3.2206 6.14907C2.64266 6.14907 2.17422 6.61751 2.17422 7.19546H2.97422C2.97422 7.05934 3.08449 6.94907 3.2206 6.94907V6.14907ZM6.24768 6.14907H3.2206V6.94907H6.24768V6.14907ZM5.55703 5.38598C5.55703 5.87398 5.67935 6.3348 5.895 6.7378L6.60036 6.36035C6.44528 6.07053 6.35703 5.73901 6.35703 5.38598H5.55703ZM8.41333 2.52969C6.838 2.52969 5.55703 3.81066 5.55703 5.38598H6.35703C6.35703 4.25248 7.27983 3.32969 8.41333 3.32969V2.52969ZM15.6639 6.14907H12.9315V6.94907H15.6639V6.14907ZM16.3737 5.386C16.3737 5.81736 16.0549 6.13836 15.6531 6.14922L15.6747 6.94893C16.523 6.926 17.1737 6.23739 17.1737 5.38604L16.3737 5.386ZM15.6102 4.6225C16.02 4.6225 16.3737 4.97627 16.3737 5.38602H17.1737C17.1737 4.53444 16.4618 3.8225 15.6102 3.8225V4.6225ZM13.2982 6.70894C13.4919 6.26474 13.7826 5.73011 14.1784 5.31215C14.5708 4.89766 15.041 4.6225 15.6102 4.6225V3.8225C14.7528 3.8225 14.0864 4.24575 13.5974 4.76212C13.1118 5.27501 12.7765 5.90367 12.5648 6.3892L13.2982 6.70894ZM6.84984 5.38598C6.84984 6.23735 7.50055 6.926 8.34865 6.94893L8.37027 6.14922C7.96875 6.13836 7.64984 5.8174 7.64984 5.38598H6.84984ZM8.41337 3.82246C7.56179 3.82246 6.84984 4.53441 6.84984 5.38598H7.64984C7.64984 4.97624 8.00362 4.62246 8.41337 4.62246V3.82246ZM11.4555 6.3882C11.2424 5.90298 10.9058 5.2747 10.4205 4.76213C9.93216 4.24635 9.26722 3.82246 8.41337 3.82246V4.62246C8.97772 4.62246 9.44654 4.89703 9.83953 5.31213C10.2356 5.73043 10.5278 6.26547 10.7231 6.70995L11.4555 6.3882ZM8.35946 6.94907H11.0893V6.14907H8.35946V6.94907Z" fill="white"/>
</svg>
