<svg width="18" height="20" viewBox="0 0 18 20" fill="none" xmlns="http://www.w3.org/2000/svg">
<path d="M17.1901 14.5203L16.029 12.8499C15.8705 12.6229 15.7852 12.3528 15.7846 12.0759V7.28216C15.7846 5.48135 15.0692 3.75429 13.7958 2.48092C12.5225 1.20756 10.7954 0.492188 8.99459 0.492188C7.19378 0.492188 5.46672 1.20756 4.19336 2.48092C2.91999 3.75429 2.20462 5.48135 2.20462 7.28216V12.0759C2.20396 12.3528 2.11867 12.6229 1.96018 12.8499L0.799095 14.5203C0.623289 14.7151 0.507681 14.9566 0.466252 15.2157C0.424824 15.4748 0.459348 15.7404 0.565651 15.9803C0.671953 16.2202 0.845481 16.4241 1.06525 16.5675C1.28502 16.7109 1.54162 16.7875 1.80401 16.7881H5.6675C5.82334 17.5556 6.23972 18.2456 6.84607 18.7412C7.45242 19.2368 8.21146 19.5075 8.99459 19.5075C9.77771 19.5075 10.5368 19.2368 11.1431 18.7412C11.7495 18.2456 12.1658 17.5556 12.3217 16.7881H16.1852C16.4476 16.7875 16.7042 16.7109 16.9239 16.5675C17.1437 16.4241 17.3172 16.2202 17.4235 15.9803C17.5298 15.7404 17.5644 15.4748 17.5229 15.2157C17.4815 14.9566 17.3659 14.7151 17.1901 14.5203ZM8.99459 18.1461C8.57433 18.1449 8.16472 18.0138 7.82192 17.7707C7.47912 17.5275 7.2199 17.1843 7.07982 16.7881H10.9094C10.7693 17.1843 10.5101 17.5275 10.1673 17.7707C9.82446 18.0138 9.41485 18.1449 8.99459 18.1461ZM1.80401 15.4301C1.8347 15.4016 1.86204 15.3697 1.88549 15.3351L3.07374 13.624C3.39072 13.1699 3.5613 12.6297 3.56261 12.0759V7.28216C3.56261 5.84151 4.13491 4.45986 5.1536 3.44117C6.17229 2.42248 7.55394 1.85018 8.99459 1.85018C10.4352 1.85018 11.8169 2.42248 12.8356 3.44117C13.8543 4.45986 14.4266 5.84151 14.4266 7.28216V12.0759C14.4279 12.6297 14.5985 13.1699 14.9154 13.624L16.1037 15.3351C16.1271 15.3697 16.1545 15.4016 16.1852 15.4301H1.80401Z" fill="white" stroke="white" stroke-width="0.844949"/>
</svg>
