<svg width="249" height="237" viewBox="0 0 249 237" fill="none" xmlns="http://www.w3.org/2000/svg">
<path d="M247.576 120.952V96.8567C247.576 91.5748 246.716 89.48 244.733 88.5449C242.085 87.298 232.611 82.2031 232.611 82.2031L234.02 115.513L245.99 122.269C246.579 122.047 247.576 120.952 247.576 120.952Z" fill="#777777"/>
<path d="M186.864 140.595V118.614L246.742 101.547V140.597C246.742 141.345 246.243 142.094 245.276 142.65L220.355 157.036C218.4 158.166 215.201 158.166 213.245 157.036L188.325 142.645C187.347 142.084 186.864 141.34 186.864 140.595Z" fill="white"/>
<path d="M246.742 140.597C246.742 141.345 246.243 142.094 245.276 142.65L220.355 157.036C219.545 157.479 218.652 157.75 217.732 157.832V134.64L241.159 103.14L246.742 101.547V140.597Z" fill="#C2C8CF"/>
<path d="M215.414 136.406H216.227V157.776H215.414V136.406Z" fill="#C2C8CF"/>
<path d="M186.864 140.595V118.614L246.742 101.547V140.597C246.742 141.345 246.243 142.094 245.276 142.65L220.355 157.036C218.4 158.166 215.201 158.166 213.245 157.036L188.325 142.645C187.347 142.084 186.864 141.34 186.864 140.595Z" stroke="black" stroke-width="0.24938" stroke-miterlimit="10" stroke-linecap="round"/>
<path d="M244.442 97.792C246.976 99.2559 247.497 102.281 245.602 104.505L220.25 134.294C218.352 136.523 214.726 137.149 212.192 135.685L189.159 122.388C186.626 120.925 186.102 117.9 188 115.675L213.352 85.8866C215.247 83.6572 218.873 83.0312 221.409 84.4926L244.442 97.792Z" fill="white" stroke="black" stroke-width="0.24938" stroke-miterlimit="10" stroke-linecap="round"/>
<path d="M192.423 162.216L194.964 146.492L207.309 153.619L192.423 162.216Z" fill="black"/>
<path d="M198.941 121.891L219.859 122.272C217.495 124.472 215.061 123.828 212.969 126.262L207.919 132.178C207.731 132.416 207.584 132.684 207.485 132.971L198.034 127.512L198.941 121.891Z" fill="black"/>
<path d="M207.31 153.623L194.965 146.496L198.033 127.516L207.484 132.975C207.379 133.249 207.32 133.539 207.31 133.832V153.623Z" fill="#877777"/>
<path d="M233.863 106.525L235.657 104.295C236.564 103.166 237.307 101.054 237.307 99.6071C237.375 98.3192 237.857 97.0877 238.682 96.0958L239.664 95.0335L235.756 92.7891L232.913 99.47L233.863 106.525Z" fill="black"/>
<path d="M246.734 121.887C247.377 121.508 247.909 120.968 248.278 120.319C248.647 119.67 248.839 118.935 248.836 118.189V96.1863C248.836 91.66 248.362 88.221 245.01 86.5003L236.621 82.1935C232.881 80.2708 227.808 79.777 223.342 84.5701L222.247 85.8445C221.471 86.7472 219.875 87.3133 218.688 87.251L216.224 87.1213L235.514 99.8895L235.187 97.7549C235.059 96.4089 235.463 95.0664 236.312 94.0141L237.407 92.7997C240.477 89.3906 243.424 88.2036 245.489 89.5303C247.085 90.5478 247.577 92.9019 247.577 96.8671V118.865C247.577 120.256 247.135 121.132 246.739 121.636L246.734 121.887Z" fill="#C2C8CF" stroke="black" stroke-width="0.24938" stroke-miterlimit="10" stroke-linecap="round"/>
<path d="M195.876 105.566C192.741 109.219 193.587 114.177 197.756 116.583L208.539 122.818C212.709 125.224 218.687 124.204 221.821 120.553L233.864 106.528C236.999 102.877 236.153 97.9196 231.984 95.5131L220.013 88.6003C216.497 86.5703 211.455 87.4307 208.811 90.5105L195.876 105.566Z" fill="#EBE9E9" stroke="black" stroke-width="0.24938" stroke-miterlimit="10" stroke-linecap="round"/>
<path d="M227.853 106.82C231.025 103.124 232.614 101.276 232.913 99.4555C233.053 98.6594 232.997 97.8412 232.751 97.0714C232.215 95.4529 230.432 94.423 226.868 92.3656L222.928 90.0913C219.117 87.8917 217.212 86.792 215.035 86.9341C214.004 87.0059 212.992 87.2503 212.042 87.6573C209.915 88.5625 208.219 90.5351 204.828 94.4853L200.107 99.9717C196.935 103.668 195.346 105.515 195.047 107.338C194.908 108.134 194.963 108.951 195.209 109.72C195.745 111.338 197.526 112.368 201.092 114.428L205.646 117.057C209.212 119.114 210.995 120.144 213.032 120.012C213.994 119.943 214.937 119.714 215.823 119.334C217.818 118.488 219.402 116.638 222.574 112.942L227.853 106.82Z" fill="black"/>
<path d="M216.251 103.692C216.777 103.012 217.522 102.669 218.485 102.662C218.5 101.969 218.167 101.389 217.487 100.923C217.245 100.757 216.871 100.627 216.361 100.536C215.813 100.438 215.51 100.375 215.456 100.345C215.342 100.282 215.171 100.098 214.943 99.7952C214.715 99.4932 214.485 99.2791 214.256 99.1519C213.866 98.9434 213.432 98.8381 212.953 98.8388C212.474 98.8396 212.006 98.9462 211.552 99.1555C210.98 99.4121 210.474 99.8169 210.033 100.369C209.636 100.865 209.332 101.413 209.121 102.014C208.916 102.585 208.806 103.125 208.791 103.634C208.771 104.094 208.792 104.449 208.853 104.699C208.927 105.074 209.104 105.331 209.385 105.47C209.564 105.562 209.838 105.632 210.21 105.679C210.558 105.722 210.867 105.815 211.132 105.962C211.379 106.099 211.592 106.295 211.773 106.547C211.98 106.822 212.178 107.01 212.365 107.114C212.65 107.257 212.995 107.294 213.399 107.224C213.536 107.204 213.702 107.164 213.894 107.103C214.116 107.032 214.337 106.955 214.555 106.872C214.74 106.8 214.923 106.721 215.102 106.638C215.295 106.547 215.48 106.449 215.66 106.34C215.738 106.296 215.816 106.248 215.891 106.198C215.966 106.148 216.041 106.097 216.118 106.044C215.966 105.832 215.864 105.595 215.811 105.335C215.696 104.762 215.842 104.214 216.251 103.692ZM217.562 99.9971C218.168 99.8159 218.638 99.5171 218.969 99.1032L219.035 99.0208C219.057 98.993 219.076 98.9642 219.092 98.9334C218.86 98.8205 218.574 98.7521 218.231 98.7287C217.888 98.7059 217.564 98.7379 217.261 98.8236C216.657 98.9909 216.197 99.2721 215.879 99.6694L215.815 99.7498C215.795 99.7748 215.777 99.802 215.761 99.8331C216.226 100.155 216.826 100.21 217.562 99.9971Z" fill="white"/>
<path d="M215.789 123.907L215.398 123.05C215.225 122.718 214.968 122.437 214.654 122.235C214.34 122.032 213.978 121.915 213.604 121.895H212.632C210.971 121.826 209.345 121.39 207.871 120.621L197.31 114.523C195.998 113.692 194.883 112.586 194.041 111.281L194.2 113.134C194.355 114.962 193.504 117.593 192.31 118.982L191.43 120.007C188.262 123.693 185.671 130.688 185.671 135.548V141.738C185.671 146.294 182.429 151.888 178.497 154.165L167.554 160.481C164.157 162.444 164.157 165.656 167.554 167.619L169.128 168.526C172.527 170.487 178.088 170.487 181.487 168.526L192.427 162.21C196.375 159.93 199.599 154.339 199.594 149.781V143.578C199.594 138.716 202.25 131.788 205.51 128.179L206.382 127.212C207.612 125.85 210.106 124.566 211.926 124.356L215.789 123.907Z" fill="#C2C8CF"/>
<path d="M194.038 111.281L194.198 113.134C194.352 114.962 193.502 117.593 192.307 118.982L191.427 120.007C188.26 123.693 185.669 130.688 185.669 135.548V141.738C185.669 146.294 182.427 151.888 178.494 154.165L167.549 160.484C164.152 162.444 164.152 165.654 167.549 167.616L169.128 168.526C172.524 170.489 178.085 170.489 181.482 168.526L192.425 162.21C196.372 159.93 199.597 154.339 199.592 149.781V143.576C199.592 138.716 202.248 131.788 205.505 128.182L206.38 127.212C207.609 125.85 210.103 124.566 211.924 124.356L215.789 123.907" stroke="black" stroke-width="0.24938" stroke-miterlimit="10" stroke-linecap="round"/>
<path d="M223.906 113.514C223.205 114.332 222.883 115.509 223.192 116.152C223.502 116.795 224.33 116.651 225.03 115.82L229.824 110.239C230.524 109.424 230.843 108.244 230.534 107.603C230.225 106.962 229.4 107.105 228.699 107.935L223.906 113.514Z" stroke="black" stroke-width="0.24938" stroke-miterlimit="10" stroke-linecap="round"/>
<path d="M189.494 147.236C189.204 146.45 189.381 145.661 189.89 145.473C190.399 145.285 191.047 145.769 191.337 146.554C191.628 147.34 191.451 148.129 190.942 148.317C190.433 148.505 189.785 148.021 189.494 147.236Z" stroke="black" stroke-width="0.24938" stroke-miterlimit="10" stroke-linecap="round"/>
<path d="M190.713 145.68C190.948 145.885 191.137 146.137 191.266 146.421C191.395 146.705 191.461 147.014 191.461 147.326C191.46 147.434 191.449 147.541 191.429 147.647C191.191 147.444 191 147.191 190.868 146.907C190.737 146.623 190.669 146.314 190.668 146.001C190.672 145.893 190.687 145.785 190.713 145.68Z" fill="black" stroke="black" stroke-width="0.24938" stroke-miterlimit="10" stroke-linecap="round"/>
<path d="M180.324 158.961C180.3 158.419 180.958 157.949 181.794 157.911C182.631 157.873 183.329 158.281 183.354 158.823C183.378 159.365 182.72 159.836 181.884 159.874C181.047 159.912 180.349 159.503 180.324 158.961Z" stroke="black" stroke-width="0.24938" stroke-miterlimit="10" stroke-linecap="round"/>
<path d="M182.91 159.567C182.644 159.73 182.346 159.835 182.035 159.873C181.725 159.912 181.41 159.883 181.112 159.789C181.009 159.757 180.91 159.714 180.815 159.661C181.081 159.497 181.38 159.391 181.69 159.353C182 159.314 182.315 159.343 182.613 159.437C182.717 159.47 182.816 159.513 182.91 159.567Z" fill="black" stroke="black" stroke-width="0.24938" stroke-miterlimit="10" stroke-linecap="round"/>
<path d="M186.903 154.81C186.31 154.498 186.147 153.644 186.538 152.901C186.929 152.159 187.726 151.811 188.318 152.123C188.911 152.435 189.074 153.289 188.683 154.031C188.292 154.773 187.495 155.122 186.903 154.81Z" stroke="black" stroke-width="0.24938" stroke-miterlimit="10" stroke-linecap="round"/>
<path d="M188.882 152.992C188.913 153.31 188.86 153.631 188.729 153.922C188.598 154.213 188.393 154.465 188.134 154.653C188.042 154.718 187.943 154.772 187.84 154.815C187.808 154.497 187.861 154.176 187.992 153.885C188.123 153.593 188.329 153.342 188.588 153.154C188.68 153.09 188.779 153.036 188.882 152.992Z" fill="black" stroke="black" stroke-width="0.24938" stroke-miterlimit="10" stroke-linecap="round"/>
<path d="M174.346 162.407C174.321 161.864 174.979 161.394 175.816 161.356C176.652 161.318 177.35 161.726 177.375 162.268C177.4 162.811 176.742 163.281 175.905 163.319C175.069 163.357 174.371 162.949 174.346 162.407Z" stroke="black" stroke-width="0.24938" stroke-miterlimit="10" stroke-linecap="round"/>
<path d="M176.93 163.012C176.663 163.176 176.364 163.281 176.054 163.319C175.743 163.357 175.428 163.328 175.129 163.234C175.027 163.202 174.928 163.16 174.835 163.107C175.101 162.942 175.399 162.837 175.709 162.798C176.02 162.759 176.335 162.788 176.633 162.883C176.736 162.916 176.835 162.959 176.93 163.012Z" fill="black" stroke="black" stroke-width="0.24938" stroke-miterlimit="10" stroke-linecap="round"/>
<path d="M152 149.033V36.0771C152 16.4657 124.464 0.570312 90.5 0.570312C56.5364 0.570312 29 16.4695 29 36.0771V149.033C29 168.644 56.5364 184.543 90.5 184.543C124.464 184.543 152 168.644 152 149.036V149.033Z" stroke="white" stroke-width="0.379185" stroke-linecap="round" stroke-linejoin="round"/>
<path d="M90.5 184.545C124.465 184.545 152 168.648 152 149.038C152 129.428 124.465 113.531 90.5 113.531C56.5345 113.531 29 129.428 29 149.038C29 168.648 56.5345 184.545 90.5 184.545Z" fill="white" stroke="#0F0F10" stroke-width="0.379185" stroke-linecap="round" stroke-linejoin="round"/>
<path d="M121.414 154.829C125.377 152.539 125.377 148.796 121.414 146.506L68.3893 115.891C54.7386 118.928 43.4389 124.695 36.4922 132.032L65.735 148.918L76.735 154.192C84.8155 158.067 96.3655 159.284 106.835 159.231C109.978 159.216 114.68 158.716 117.403 157.142L121.411 154.829H121.414Z" fill="#0F0F10"/>
<path d="M143.534 145.351C147.068 147.391 147.083 150.697 143.576 152.734L97.042 179.773C93.5345 181.813 87.8278 181.813 84.2938 179.773L37.4569 152.734C33.9267 150.694 33.9077 147.387 37.4152 145.351L83.9487 118.311C87.4562 116.271 93.163 116.271 96.697 118.311L143.534 145.351Z" stroke="#0F0F10" stroke-width="0.379185" stroke-linecap="round" stroke-linejoin="round"/>
<path d="M136.61 164.901C137.717 165.541 137.724 166.576 136.621 167.217L122.026 175.7C120.927 176.341 119.137 176.341 118.03 175.7L114.325 173.561C113.218 172.92 113.21 171.885 114.314 171.244L128.908 162.762C130.008 162.121 131.798 162.121 132.905 162.762L136.61 164.901Z" fill="#0F0F10"/>
<path d="M117.535 172.484L119.2 173.443L120.148 172.897L118.483 171.938L117.535 172.484Z" fill="#ACF1BD"/>
<path d="M119.217 171.515L120.885 172.474L121.829 171.928L120.165 170.969L119.217 171.515Z" fill="#ACF1BD"/>
<path d="M120.898 170.53L122.563 171.494L123.511 170.944L121.843 169.984L120.898 170.53Z" fill="#ACF1BD"/>
<path d="M122.578 169.562L124.243 170.525L125.191 169.975L123.526 169.016L122.578 169.562Z" fill="#ACF1BD"/>
<path d="M119.961 174.078L133.396 166.32" stroke="white" stroke-width="0.379185" stroke-miterlimit="10"/>
<path d="M122.348 145.697C122.547 145.697 122.708 145.535 122.708 145.337C122.708 145.138 122.547 144.977 122.348 144.977C122.149 144.977 121.988 145.138 121.988 145.337C121.988 145.535 122.149 145.697 122.348 145.697Z" fill="#0F0F10"/>
<path d="M128.751 149.4C128.95 149.4 129.111 149.239 129.111 149.04C129.111 148.841 128.95 148.68 128.751 148.68C128.552 148.68 128.391 148.841 128.391 149.04C128.391 149.239 128.552 149.4 128.751 149.4Z" fill="#0F0F10"/>
<path d="M96.7468 160.486C96.9456 160.486 97.1069 160.325 97.1069 160.126C97.1069 159.927 96.9456 159.766 96.7468 159.766C96.5479 159.766 96.3867 159.927 96.3867 160.126C96.3867 160.325 96.5479 160.486 96.7468 160.486Z" fill="#0F0F10"/>
<path d="M90.3366 164.181C90.5355 164.181 90.6966 164.02 90.6966 163.821C90.6966 163.622 90.5355 163.461 90.3366 163.461C90.1377 163.461 89.9766 163.622 89.9766 163.821C89.9766 164.02 90.1377 164.181 90.3366 164.181Z" fill="#0F0F10"/>
<path d="M122.348 153.095C122.547 153.095 122.708 152.934 122.708 152.735C122.708 152.536 122.547 152.375 122.348 152.375C122.149 152.375 121.988 152.536 121.988 152.735C121.988 152.934 122.149 153.095 122.348 153.095Z" fill="#0F0F10"/>
<path d="M109.548 160.486C109.746 160.486 109.908 160.325 109.908 160.126C109.908 159.927 109.746 159.766 109.548 159.766C109.349 159.766 109.188 159.927 109.188 160.126C109.188 160.325 109.349 160.486 109.548 160.486Z" fill="#0F0F10"/>
<path d="M103.149 164.181C103.348 164.181 103.509 164.02 103.509 163.821C103.509 163.622 103.348 163.461 103.149 163.461C102.95 163.461 102.789 163.622 102.789 163.821C102.789 164.02 102.95 164.181 103.149 164.181Z" fill="#0F0F10"/>
<path d="M96.7468 167.876C96.9456 167.876 97.1069 167.715 97.1069 167.516C97.1069 167.317 96.9456 167.156 96.7468 167.156C96.5479 167.156 96.3867 167.317 96.3867 167.516C96.3867 167.715 96.5479 167.876 96.7468 167.876Z" fill="#0F0F10"/>
<path d="M90.3366 171.564C90.5355 171.564 90.6966 171.403 90.6966 171.204C90.6966 171.005 90.5355 170.844 90.3366 170.844C90.1377 170.844 89.9766 171.005 89.9766 171.204C89.9766 171.403 90.1377 171.564 90.3366 171.564Z" fill="#0F0F10"/>
<path d="M83.9401 160.486C84.139 160.486 84.3002 160.325 84.3002 160.126C84.3002 159.927 84.139 159.766 83.9401 159.766C83.7413 159.766 83.5801 159.927 83.5801 160.126C83.5801 160.325 83.7413 160.486 83.9401 160.486Z" fill="#0F0F10"/>
<path d="M77.5358 156.775C77.7347 156.775 77.8959 156.614 77.8959 156.415C77.8959 156.216 77.7347 156.055 77.5358 156.055C77.337 156.055 77.1758 156.216 77.1758 156.415C77.1758 156.614 77.337 156.775 77.5358 156.775Z" fill="#0F0F10"/>
<path d="M71.1413 153.095C71.3401 153.095 71.5014 152.934 71.5014 152.735C71.5014 152.536 71.3401 152.375 71.1413 152.375C70.9424 152.375 70.7812 152.536 70.7812 152.735C70.7812 152.934 70.9424 153.095 71.1413 153.095Z" fill="#0F0F10"/>
<path d="M64.7331 149.4C64.9319 149.4 65.0931 149.239 65.0931 149.04C65.0931 148.841 64.9319 148.68 64.7331 148.68C64.5342 148.68 64.373 148.841 64.373 149.04C64.373 149.239 64.5342 149.4 64.7331 149.4Z" fill="#0F0F10"/>
<path d="M58.3367 145.697C58.5355 145.697 58.6967 145.535 58.6967 145.337C58.6967 145.138 58.5355 144.977 58.3367 144.977C58.1378 144.977 57.9766 145.138 57.9766 145.337C57.9766 145.535 58.1378 145.697 58.3367 145.697Z" fill="#0F0F10"/>
<path d="M83.9401 167.876C84.139 167.876 84.3002 167.715 84.3002 167.516C84.3002 167.317 84.139 167.156 83.9401 167.156C83.7413 167.156 83.5801 167.317 83.5801 167.516C83.5801 167.715 83.7413 167.876 83.9401 167.876Z" fill="#0F0F10"/>
<path d="M77.5358 164.181C77.7347 164.181 77.8959 164.02 77.8959 163.821C77.8959 163.622 77.7347 163.461 77.5358 163.461C77.337 163.461 77.1758 163.622 77.1758 163.821C77.1758 164.02 77.337 164.181 77.5358 164.181Z" fill="#0F0F10"/>
<path d="M71.1413 160.486C71.3401 160.486 71.5014 160.325 71.5014 160.126C71.5014 159.927 71.3401 159.766 71.1413 159.766C70.9424 159.766 70.7812 159.927 70.7812 160.126C70.7812 160.325 70.9424 160.486 71.1413 160.486Z" fill="#0F0F10"/>
<path d="M64.7331 156.775C64.9319 156.775 65.0931 156.614 65.0931 156.415C65.0931 156.216 64.9319 156.055 64.7331 156.055C64.5342 156.055 64.373 156.216 64.373 156.415C64.373 156.614 64.5342 156.775 64.7331 156.775Z" fill="#0F0F10"/>
<path d="M58.3367 153.095C58.5355 153.095 58.6967 152.934 58.6967 152.735C58.6967 152.536 58.5355 152.375 58.3367 152.375C58.1378 152.375 57.9766 152.536 57.9766 152.735C57.9766 152.934 58.1378 153.095 58.3367 153.095Z" fill="#0F0F10"/>
<path d="M51.9343 149.4C52.1331 149.4 52.2943 149.239 52.2943 149.04C52.2943 148.841 52.1331 148.68 51.9343 148.68C51.7354 148.68 51.5742 148.841 51.5742 149.04C51.5742 149.239 51.7354 149.4 51.9343 149.4Z" fill="#0F0F10"/>
<path d="M137.27 149.954C138.116 149.954 138.802 149.559 138.802 149.071C138.802 148.583 138.116 148.188 137.27 148.188C136.424 148.188 135.738 148.583 135.738 149.071C135.738 149.559 136.424 149.954 137.27 149.954Z" fill="#0F0F10"/>
<path d="M90.7272 177.001C91.5733 177.001 92.2592 176.606 92.2592 176.118C92.2592 175.63 91.5733 175.234 90.7272 175.234C89.8812 175.234 89.1953 175.63 89.1953 176.118C89.1953 176.606 89.8812 177.001 90.7272 177.001Z" fill="#0F0F10"/>
<path d="M137.264 150.714C138.83 150.714 140.1 149.98 140.1 149.076C140.1 148.171 138.83 147.438 137.264 147.438C135.698 147.438 134.428 148.171 134.428 149.076C134.428 149.98 135.698 150.714 137.264 150.714Z" stroke="#0F0F10" stroke-width="0.379185" stroke-linecap="round" stroke-linejoin="round"/>
<path d="M90.348 123.636C91.9145 123.636 93.1843 122.902 93.1843 121.997C93.1843 121.093 91.9145 120.359 90.348 120.359C88.7816 120.359 87.5117 121.093 87.5117 121.997C87.5117 122.902 88.7816 123.636 90.348 123.636Z" stroke="#0F0F10" stroke-width="0.379185" stroke-linecap="round" stroke-linejoin="round"/>
<path d="M43.8187 150.667C45.3852 150.667 46.655 149.933 46.655 149.029C46.655 148.124 45.3852 147.391 43.8187 147.391C42.2523 147.391 40.9824 148.124 40.9824 149.029C40.9824 149.933 42.2523 150.667 43.8187 150.667Z" stroke="#0F0F10" stroke-width="0.379185" stroke-linecap="round" stroke-linejoin="round"/>
<path d="M90.7289 177.753C92.2953 177.753 93.5652 177.019 93.5652 176.115C93.5652 175.21 92.2953 174.477 90.7289 174.477C89.1624 174.477 87.8926 175.21 87.8926 176.115C87.8926 177.019 89.1624 177.753 90.7289 177.753Z" stroke="#0F0F10" stroke-width="0.379185" stroke-linecap="round" stroke-linejoin="round"/>
<path d="M90.7324 176.114V163.077C90.7324 160.999 92.2074 158.451 94.0085 157.412L133.944 134.472C135.745 133.436 137.228 134.29 137.232 136.368L137.262 149.07" stroke="#0F0F10" stroke-width="1.51674" stroke-linecap="round" stroke-linejoin="round"/>
<path d="M90.3464 122.876C91.1924 122.876 91.8783 122.481 91.8783 121.993C91.8783 121.505 91.1924 121.109 90.3464 121.109C89.5003 121.109 88.8145 121.505 88.8145 121.993C88.8145 122.481 89.5003 122.876 90.3464 122.876Z" fill="#0F0F10"/>
<path d="M43.8171 149.908C44.6631 149.908 45.349 149.512 45.349 149.024C45.349 148.536 44.6631 148.141 43.8171 148.141C42.971 148.141 42.2852 148.536 42.2852 149.024C42.2852 149.512 42.971 149.908 43.8171 149.908Z" fill="#0F0F10"/>
<path d="M43.8203 149.032V88.2179C43.8203 86.14 45.2953 83.5919 47.0964 82.5529L87.0322 59.6122C88.8333 58.5771 90.3121 59.4302 90.3121 61.5082L90.3501 121.988" stroke="#0F0F10" stroke-width="1.51674" stroke-linecap="round" stroke-linejoin="round"/>
<path d="M87.801 117.961C92.0782 113.305 104.944 97.728 113.445 92.8214L118.894 89.6741L117.502 77.4037L93.7959 67.6814L94.3229 38.7117L90.0078 37.4983C88.2067 36.9901 85.4045 37.3428 83.7816 38.2794L77.1572 42.1054C73.4336 44.2554 71.8032 46.4016 70.8552 48.5705L66.0547 63.3928L72.8914 95.578L83.1142 123.107L84.7637 120.18L87.801 117.958V117.961Z" fill="white" stroke="#0F0F10" stroke-width="0.379185" stroke-linecap="round" stroke-linejoin="round"/>
<path d="M83.2011 118.454L92.6619 96.5333C93.606 94.3416 93.4088 90.8568 92.222 88.7865L76.9294 62.1487C75.5947 59.8205 74.6733 55.7291 74.8856 53.0521L75.663 43.2578L74.3662 44.2436L73.2855 45.2371L72.6636 53.7536C72.4664 56.4307 73.3765 60.5335 74.6922 62.873L84.1757 79.7619C85.3435 81.8437 85.4232 85.2904 84.3501 87.4214L78.9771 98.1106L83.2011 118.454Z" fill="#C2C8CF"/>
<path d="M108.274 77.1226L92.3713 72.0302C88.1586 70.6803 85.5232 66.0505 86.5129 61.7391L90.1872 45.73C92.341 36.3451 95.6665 36.3869 97.5775 45.8248L99.5113 55.3688C100.076 58.1596 102.408 61.8301 104.699 63.5251L118.497 73.7517L108.282 77.1226H108.274Z" fill="#0F0F10" stroke="#0F0F10" stroke-width="0.379185" stroke-linecap="round" stroke-linejoin="round"/>
<path d="M110.333 76.9372L95.636 72.2315C91.7456 70.984 89.3074 66.7068 90.2213 62.7215L93.6149 47.9257C94.324 44.8316 95.1735 42.8447 96.0494 41.9688" stroke="#6D8510" stroke-width="0.379185" stroke-linecap="round" stroke-linejoin="round"/>
<path d="M77.1522 87.7969L70.5469 59.5248C69.8378 56.4913 69.9743 51.5658 70.854 48.5778L57.6962 47.5312L55.4363 48.8356C53.5138 49.9428 51.5345 52.6199 51.034 54.7812L48.903 63.9613C48.3986 66.1378 48.8726 69.5163 49.9571 71.4691L64.3358 97.3865C65.5378 99.5554 67.6082 100.594 69.6747 99.5894L73.6486 97.6253L72.8902 95.5815L77.1522 87.7969Z" fill="white" stroke="#0F0F10" stroke-width="0.379185" stroke-linecap="round" stroke-linejoin="round"/>
<path d="M66.765 85.5914L58.1613 68.6457C57.7707 67.8759 57.5964 66.5564 57.7708 65.7146L58.9917 59.8751C59.2155 58.7982 60.2999 57.9792 61.3957 58.0513L70.3787 58.6465" stroke="#0F0F10" stroke-width="0.379185" stroke-linecap="round" stroke-linejoin="round"/>
<path d="M65.7227 83.554L73.3101 71.3594" stroke="#0F0F10" stroke-width="0.379185" stroke-linecap="round" stroke-linejoin="round"/>
<path d="M64.0391 80.2322L72.3053 66.9531" stroke="#0F0F10" stroke-width="0.379185" stroke-linecap="round" stroke-linejoin="round"/>
<path d="M62.3516 76.904L71.2624 62.5859" stroke="#0F0F10" stroke-width="0.379185" stroke-linecap="round" stroke-linejoin="round"/>
<path d="M60.668 73.5914L69.9846 58.625" stroke="#0F0F10" stroke-width="0.379185" stroke-linecap="round" stroke-linejoin="round"/>
<path d="M80.0941 100.339C79.3547 97.188 77.4891 96.9415 75.9496 99.7892L71.043 108.882L72.6279 112.336L78.547 123.003C79.2447 124.258 80.0751 125.555 81.0041 126.859L84.7656 120.189L80.0979 100.339H80.0941Z" fill="white" stroke="#0F0F10" stroke-width="0.379185" stroke-linecap="round" stroke-linejoin="round"/>
<path d="M120.248 88.8919C122.019 87.8681 122.997 88.3952 123.194 89.8475L123.926 69.3223C124.085 64.901 121.078 63.0922 117.245 65.3029L110.014 69.4777C108.156 70.5508 106.522 73.1823 106.385 75.3247L106.196 78.3165L104.906 99.5887C107.913 96.7562 110.878 94.2991 113.445 92.8165L120.248 88.8881V88.8919Z" fill="white" stroke="#0F0F10" stroke-width="0.379185" stroke-linecap="round" stroke-linejoin="round"/>
<path d="M102.395 83.7113C103.178 83.7113 103.813 83.0764 103.813 82.2931C103.813 81.5099 103.178 80.875 102.395 80.875C101.611 80.875 100.977 81.5099 100.977 82.2931C100.977 83.0764 101.611 83.7113 102.395 83.7113Z" fill="#0F0F10"/>
<path d="M101.844 90.7738C102.627 90.7738 103.262 90.1389 103.262 89.3556C103.262 88.5724 102.627 87.9375 101.844 87.9375C101.061 87.9375 100.426 88.5724 100.426 89.3556C100.426 90.1389 101.061 90.7738 101.844 90.7738Z" fill="#0F0F10"/>
<path d="M101.266 97.8441C102.049 97.8441 102.684 97.2092 102.684 96.426C102.684 95.6427 102.049 95.0078 101.266 95.0078C100.483 95.0078 99.8477 95.6427 99.8477 96.426C99.8477 97.2092 100.483 97.8441 101.266 97.8441Z" fill="#0F0F10"/>
<path d="M102.393 82.2914L105.604 83.0004C108.604 83.6602 113.23 82.9474 115.888 81.4117L123.65 76.9297" stroke="#0F0F10" stroke-width="1.51674" stroke-miterlimit="10"/>
<path d="M101.844 89.3616L105.055 90.0708C108.055 90.7305 112.681 90.0177 115.339 88.482L123.101 84" stroke="#0F0F10" stroke-width="1.51674" stroke-miterlimit="10"/>
<path d="M101.293 96.4242L104.505 97.1333C107.504 97.793 112.13 97.0802 114.788 95.5445L122.55 91.0625" stroke="#0F0F10" stroke-width="1.51674" stroke-miterlimit="10"/>
<path d="M97.1963 141.579L113.588 148.848L126.45 145.625H128.979C130.917 144.506 131.804 141.897 130.951 139.827L122.169 118.543L118.893 89.6797L113.444 92.8269C104.943 97.7336 92.0773 113.314 87.8 117.967L84.7628 120.189L83.1133 123.116L86.3023 131.701L97.2038 141.582L97.1963 141.579Z" fill="white"/>
<path d="M80.9999 126.849C86.8621 135.074 96.8839 143.848 105.101 147.629L107.349 148.664C113.056 151.292 119.68 150.984 125.118 147.845L128.978 145.615C130.916 144.497 131.803 141.888 130.95 139.817L130.313 138.27C130.169 140.572 128.883 142.646 126.889 143.799L125.562 144.565C120.12 147.705 113.496 148.012 107.793 145.384L105.545 144.349C100.877 142.199 95.6212 138.437 90.8776 134.08C89.6452 132.947 88.3105 131.597 87.1653 130.402L84.7576 120.172L80.9961 126.842L80.9999 126.849Z" fill="#0F0F10"/>
<path d="M111.81 120.222C112.955 121.925 115.347 122.478 117.126 121.454L122.169 118.542L123.193 89.8531C122.995 88.4008 122.017 87.8775 120.246 88.8975L113.444 92.8259C110.877 94.3085 107.911 96.7656 104.904 99.5981L104.328 109.108L111.81 120.222Z" fill="white"/>
<path d="M67.249 58.4487L63.1273 58.1756C62.221 58.115 61.3261 58.7937 61.1403 59.6848L60.1317 64.5119C59.9839 65.2096 60.1317 66.3016 60.454 66.9349L61.1365 68.2772L67.2528 58.4524L67.249 58.4487Z" fill="#0F0F10" stroke="#0F0F10" stroke-width="0.379185" stroke-linecap="round" stroke-linejoin="round"/>
<path d="M80.9999 126.844L113.868 107.87L119.552 99.5622C121.876 96.1609 123.105 92.8846 123.222 90.7612C123.34 88.6378 122.35 87.6671 120.242 88.8843L113.439 92.8126C104.938 97.7193 92.0721 113.3 87.7949 117.953L84.7576 120.175L80.9961 126.844H80.9999Z" stroke="#0F0F10" stroke-width="0.379185" stroke-linecap="round" stroke-linejoin="round"/>
<path d="M90.5195 114.891L94.6109 118.982" stroke="#0F0F10" stroke-width="0.379185" stroke-linecap="round" stroke-linejoin="round"/>
<path d="M96.8047 117.719L92.1445 113.055" stroke="#0F0F10" stroke-width="0.379185" stroke-linecap="round" stroke-linejoin="round"/>
<path d="M91.3301 113.977L95.7058 118.352" stroke="#0F0F10" stroke-width="0.379185" stroke-linecap="round" stroke-linejoin="round"/>
<path d="M98.9985 116.455L93.7695 111.227" stroke="#0F0F10" stroke-width="0.379185" stroke-linecap="round" stroke-linejoin="round"/>
<path d="M92.9531 112.156L97.8977 117.101" stroke="#0F0F10" stroke-width="0.379185" stroke-linecap="round" stroke-linejoin="round"/>
<path d="M94.5859 110.312L100.096 115.818" stroke="#0F0F10" stroke-width="0.379185" stroke-linecap="round" stroke-linejoin="round"/>
<path d="M103.383 113.923L97.0586 107.602" stroke="#0F0F10" stroke-width="0.379185" stroke-linecap="round" stroke-linejoin="round"/>
<path d="M96.2266 108.5L102.282 114.556" stroke="#0F0F10" stroke-width="0.379185" stroke-linecap="round" stroke-linejoin="round"/>
<path d="M95.4062 109.406L101.189 115.189" stroke="#0F0F10" stroke-width="0.379185" stroke-linecap="round" stroke-linejoin="round"/>
<path d="M93.5141 119.62L89.7109 115.812" stroke="#0F0F10" stroke-width="0.379185" stroke-linecap="round" stroke-linejoin="round"/>
<path d="M88.9062 116.734L92.4251 120.253" stroke="#0F0F10" stroke-width="0.379185" stroke-linecap="round" stroke-linejoin="round"/>
<path d="M83.6447 125.316L82.5039 124.172" stroke="#0F0F10" stroke-width="0.379185" stroke-linecap="round" stroke-linejoin="round"/>
<path d="M81.8867 125.281L82.5538 125.952" stroke="#0F0F10" stroke-width="0.379185" stroke-linecap="round" stroke-linejoin="round"/>
<path d="M85.8471 124.058L83.7578 121.969" stroke="#0F0F10" stroke-width="0.379185" stroke-linecap="round" stroke-linejoin="round"/>
<path d="M83.1289 123.078L84.7473 124.693" stroke="#0F0F10" stroke-width="0.379185" stroke-linecap="round" stroke-linejoin="round"/>
<path d="M88.0417 122.788L85.1523 119.898" stroke="#0F0F10" stroke-width="0.379185" stroke-linecap="round" stroke-linejoin="round"/>
<path d="M84.3789 120.859L86.9422 123.423" stroke="#0F0F10" stroke-width="0.379185" stroke-linecap="round" stroke-linejoin="round"/>
<path d="M88.082 117.641L91.3241 120.883" stroke="#0F0F10" stroke-width="0.379185" stroke-linecap="round" stroke-linejoin="round"/>
<path d="M90.2252 121.52L87.1387 118.438" stroke="#0F0F10" stroke-width="0.379185" stroke-linecap="round" stroke-linejoin="round"/>
<path d="M86.1406 119.156L89.1286 122.144" stroke="#0F0F10" stroke-width="0.379185" stroke-linecap="round" stroke-linejoin="round"/>
<path d="M105.573 112.661L98.7246 105.812" stroke="#0F0F10" stroke-width="0.379185" stroke-linecap="round" stroke-linejoin="round"/>
<path d="M97.8867 106.711L104.477 113.301" stroke="#0F0F10" stroke-width="0.379185" stroke-linecap="round" stroke-linejoin="round"/>
<path d="M99.5645 104.922L106.667 112.028" stroke="#0F0F10" stroke-width="0.379185" stroke-linecap="round" stroke-linejoin="round"/>
<path d="M121.085 97.0493L115.598 91.5625" stroke="#0F0F10" stroke-width="0.379185" stroke-linecap="round" stroke-linejoin="round"/>
<path d="M114.51 92.2031L120.459 98.1564" stroke="#0F0F10" stroke-width="0.379185" stroke-linecap="round" stroke-linejoin="round"/>
<path d="M119.089 100.242L112.344 93.5" stroke="#0F0F10" stroke-width="0.379185" stroke-linecap="round" stroke-linejoin="round"/>
<path d="M111.314 94.1953L118.386 101.263" stroke="#0F0F10" stroke-width="0.379185" stroke-linecap="round" stroke-linejoin="round"/>
<path d="M113.414 92.8281L119.788 99.2059" stroke="#0F0F10" stroke-width="0.379185" stroke-linecap="round" stroke-linejoin="round"/>
<path d="M121.152 88.4766L123.226 90.5469" stroke="#0F0F10" stroke-width="0.379185" stroke-linecap="round" stroke-linejoin="round"/>
<path d="M116.695 90.9219L121.67 95.8967" stroke="#0F0F10" stroke-width="0.379185" stroke-linecap="round" stroke-linejoin="round"/>
<path d="M123.041 92.0837L119.992 89.0312" stroke="#0F0F10" stroke-width="0.379185" stroke-linecap="round" stroke-linejoin="round"/>
<path d="M118.891 89.6641L122.667 93.4407" stroke="#0F0F10" stroke-width="0.379185" stroke-linecap="round" stroke-linejoin="round"/>
<path d="M117.797 90.2969L122.207 94.7068" stroke="#0F0F10" stroke-width="0.379185" stroke-linecap="round" stroke-linejoin="round"/>
<path d="M111.056 109.499L102.994 101.438" stroke="#0F0F10" stroke-width="0.379185" stroke-linecap="round" stroke-linejoin="round"/>
<path d="M102.125 102.297L109.959 110.131" stroke="#0F0F10" stroke-width="0.379185" stroke-linecap="round" stroke-linejoin="round"/>
<path d="M103.871 100.578L112.153 108.863" stroke="#0F0F10" stroke-width="0.379185" stroke-linecap="round" stroke-linejoin="round"/>
<path d="M108.861 110.759L101.266 103.164" stroke="#0F0F10" stroke-width="0.379185" stroke-linecap="round" stroke-linejoin="round"/>
<path d="M100.414 104.047L107.766 111.399" stroke="#0F0F10" stroke-width="0.379185" stroke-linecap="round" stroke-linejoin="round"/>
<path d="M117.688 102.293L110.324 94.9297" stroke="#0F0F10" stroke-width="0.379185" stroke-linecap="round" stroke-linejoin="round"/>
<path d="M109.348 95.6875L116.981 103.324" stroke="#0F0F10" stroke-width="0.379185" stroke-linecap="round" stroke-linejoin="round"/>
<path d="M116.282 104.356L108.402 96.4766" stroke="#0F0F10" stroke-width="0.379185" stroke-linecap="round" stroke-linejoin="round"/>
<path d="M107.461 97.2656L115.572 105.376" stroke="#0F0F10" stroke-width="0.379185" stroke-linecap="round" stroke-linejoin="round"/>
<path d="M104.752 99.7344L113.249 108.232" stroke="#0F0F10" stroke-width="0.379185" stroke-linecap="round" stroke-linejoin="round"/>
<path d="M114.874 106.405L106.547 98.0781" stroke="#0F0F10" stroke-width="0.379185" stroke-linecap="round" stroke-linejoin="round"/>
<path d="M105.648 98.8906L114.176 107.418" stroke="#0F0F10" stroke-width="0.379185" stroke-linecap="round" stroke-linejoin="round"/>
<path d="M81 126.848C86.8622 135.073 96.884 143.847 105.101 147.628L107.35 148.663C113.056 151.291 119.681 150.983 125.118 147.844L128.978 145.614C130.916 144.496 131.803 141.887 130.95 139.817L130.313 138.269L122.168 118.533L123.192 89.8438" stroke="#0F0F10" stroke-width="0.379185" stroke-linecap="round" stroke-linejoin="round"/>
<path d="M127.281 146.601C129.249 145.361 130.057 142.62 129.075 140.511L121.351 123.937C120.357 121.802 119.542 118.132 119.538 115.777L119.516 89.3594" stroke="#0F0F10" stroke-width="0.379185" stroke-linecap="round" stroke-linejoin="round"/>
<path d="M87.9258 134.946L118.029 117.473L121.946 108.028C122.417 106.898 122.621 105.582 122.644 105.161C122.743 103.413 121.772 102.708 120.047 103.709L114.48 106.939C107.522 110.978 89.2947 132.504 89.2947 132.504L87.9258 134.946V134.946Z" stroke="#0F0F10" stroke-width="0.379185" stroke-linecap="round" stroke-linejoin="round"/>
<path d="M98.584 143.759L123.754 129.149C123.754 129.149 124.725 124.713 123.944 122.817C123.481 121.698 122.548 120.766 121.301 121.49L115.287 124.982C110.27 127.894 99.5509 140.912 99.5509 140.912L98.584 143.759V143.759Z" stroke="#0F0F10" stroke-width="0.379185" stroke-linecap="round" stroke-linejoin="round"/>
<path d="M128.538 139.369L129.08 137.265C129.782 134.542 127.089 134.588 125.846 135.312L120.738 138.281C117.989 139.877 114.262 142.407 112.855 145.876L111.217 149.915" stroke="#0F0F10" stroke-width="0.379185" stroke-linecap="round" stroke-linejoin="round"/>
<path d="M113.988 150.374L115.865 149.088C117.874 147.712 118.564 144.841 117.396 142.703L106.776 123.296C105.429 120.839 104.402 116.539 104.485 113.741L104.91 99.5781" stroke="#0F0F10" stroke-width="0.379185" stroke-linecap="round" stroke-linejoin="round"/>
<path d="M123.222 90.7612C123.34 88.6378 122.35 87.6671 120.242 88.8843L113.439 92.8126C104.938 97.7193 92.0721 113.3 87.7949 117.953L84.7576 120.175L80.9961 126.844" stroke="white" stroke-width="0.379185" stroke-linecap="round" stroke-linejoin="round"/>
<path d="M130.313 138.27C130.169 140.572 128.884 142.646 126.889 143.799L125.562 144.565C120.121 147.705 113.496 148.012 107.793 145.384L105.545 144.349C100.877 142.199 95.6215 138.437 90.8779 134.08C90.1916 133.451 89.475 132.753 88.7735 132.052C87.7232 130.998 86.9951 129.686 86.6576 128.237L84.7617 120.172" stroke="#0F0F10" stroke-width="0.379185" stroke-linecap="round" stroke-linejoin="round"/>
<path d="M104.966 82.3369C105.054 80.9282 103.983 79.7151 102.574 79.6274C101.165 79.5398 99.9524 80.6108 99.8647 82.0195L99.4325 88.9679C99.3448 90.3766 100.416 91.5897 101.825 91.6773C103.233 91.765 104.446 90.694 104.534 89.2853L104.966 82.3369Z" stroke="#0F0F10" stroke-width="0.379185" stroke-miterlimit="10"/>
<path d="M90.5 71.5919C124.465 71.5919 152 55.6948 152 36.0849C152 16.475 124.465 0.578125 90.5 0.578125C56.5345 0.578125 29 16.475 29 36.0849C29 55.6948 56.5345 71.5919 90.5 71.5919Z" stroke="white" stroke-width="0.379185" stroke-linecap="round" stroke-linejoin="round"/>
<g clip-path="url(#clip0_1_7146)">
<rect width="55.1068" height="34.9304" rx="2.52205" transform="matrix(0.978381 -0.206811 0.564369 0.825522 146.447 194.68)" fill="#0B0D00"/>
<path d="M151.5 202.078L205.415 190.681L208.903 195.782L154.987 207.179L151.5 202.078Z" fill="white" fill-opacity="0.1"/>
<path d="M166.287 216.822L175.129 214.953L176.25 217.695L167.408 219.563L166.287 216.822Z" fill="white" fill-opacity="0.2"/>
<path d="M204.535 208.736L213.377 206.867L214.498 209.609L205.656 211.478L204.535 208.736Z" fill="white" fill-opacity="0.1"/>
<path d="M164.599 215.45C164.461 215.249 164.543 215.045 164.781 214.995L172.801 213.299C173.039 213.249 173.344 213.371 173.482 213.573C173.619 213.774 173.538 213.978 173.299 214.028L165.28 215.723C165.041 215.774 164.736 215.652 164.599 215.45Z" fill="white" fill-opacity="0.2"/>
<path d="M160.588 208.008L183.094 203.251L184.06 206.025L161.555 210.782L160.588 208.008Z" fill="white" fill-opacity="0.1"/>
</g>
<g clip-path="url(#clip1_1_7146)">
<rect width="54.7906" height="37.8011" rx="2.72932" transform="matrix(0.83205 -0.5547 0.830139 0.557556 150.098 215.93)" fill="#4F59DD"/>
<path d="M209.637 207.032L211.176 209.559L210.449 210.044L207.782 208.987C207.617 208.921 207.541 208.909 207.384 208.939C207.129 208.99 206.772 209.115 206.479 209.24L206.418 209.177L207.589 208.397C207.739 208.297 207.972 208.275 208.177 208.367L210.004 209.206L208.913 207.514L209.636 207.032L209.637 207.032ZM214.275 206.333C213.578 205.86 212.566 206.484 212.259 206.269C212.165 206.204 212.155 206.075 212.329 205.925C212.414 205.85 212.676 205.663 213.126 205.552L212.684 205.093C212.458 205.163 212.187 205.267 211.922 205.444C211.242 205.897 211.124 206.459 211.637 206.809C212.014 207.068 212.574 206.98 212.962 206.892C213.36 206.801 213.533 206.797 213.649 206.876C213.825 206.997 213.691 207.19 213.497 207.325C213.156 207.559 212.856 207.627 212.621 207.684L213.079 208.158C213.313 208.1 213.674 207.945 213.986 207.742C214.709 207.26 214.825 206.705 214.275 206.333ZM216.939 205.717L217.576 205.293L214.365 203.88L213.777 204.272C213.645 204.36 213.611 204.485 213.679 204.598L215.107 206.938L215.83 206.457L215.576 206.095L216.459 205.506L216.939 205.717ZM215.23 205.597L214.596 204.686L215.801 205.217L215.23 205.597ZM210.62 206.377L212.706 208.54L212.017 208.998L209.932 206.835L210.62 206.377Z" fill="white"/>
<path d="M215.326 209.63L214.41 209.339L214.251 209.445L215.439 209.811L215.588 209.711L215.051 208.912L214.896 209.015L215.326 209.63ZM216.181 209.316L215.316 208.735L215.167 208.835L216.032 209.416L216.181 209.316ZM216.827 208.886L216.993 208.775L216.441 208.666C216.533 208.566 216.514 208.453 216.39 208.37C216.244 208.272 216.024 208.263 215.857 208.375L215.524 208.596L216.389 209.178L216.537 209.079L216.195 208.849L216.303 208.778L216.827 208.886ZM216.066 208.763L215.801 208.585L215.959 208.48C216.049 208.419 216.161 208.415 216.241 208.469C216.32 208.523 216.314 208.597 216.224 208.657L216.066 208.763ZM217.045 207.767L216.907 207.674L216.197 208.148L216.334 208.241L216.616 208.053L217.343 208.542L217.49 208.444L216.762 207.955L217.045 207.767ZM218.226 207.977C218.409 207.856 218.439 207.686 218.231 207.546L217.667 207.168L217.52 207.266L218.075 207.638C218.197 207.72 218.199 207.809 218.087 207.884C217.977 207.957 217.843 207.957 217.721 207.875L217.166 207.502L217.02 207.599L217.584 207.978C217.792 208.118 218.045 208.098 218.226 207.977ZM219.288 207.245L219.448 207.138L218.246 206.782L218.076 206.895L218.603 207.701L218.759 207.598L218.622 207.398L218.989 207.153L219.288 207.245ZM218.316 206.947L218.802 207.097L218.538 207.273L218.316 206.947ZM220.109 206.698L219.97 206.604L219.572 206.869L218.846 206.382L218.699 206.479L219.565 207.06L220.109 206.698Z" fill="white"/>
<path d="M159.953 218.101L159.953 218.101L159.954 218.101C160.377 218.184 160.797 218.193 161.213 218.129C161.634 218.068 162.003 217.931 162.318 217.721C162.563 217.558 162.797 217.38 162.957 217.178C163.294 216.752 163.421 216.278 163.122 215.698C162.825 215.119 162.106 214.436 160.759 213.588L160.732 213.572L160.703 213.586L159.574 214.123L159.53 214.145L159.57 214.169C160.209 214.557 160.919 215.039 161.341 215.525C161.764 216.012 161.892 216.494 161.399 216.894C161.211 217.047 160.944 217.124 160.694 217.142C160.446 217.155 160.218 217.105 160.008 216.99L160.008 216.99L160.004 216.989C159.982 216.979 159.96 216.966 159.937 216.951L159.863 216.901C159.662 216.766 159.534 216.616 159.479 216.451C159.423 216.285 159.437 216.118 159.522 215.949L159.522 215.949L159.522 215.948C159.607 215.774 159.758 215.614 159.976 215.468C159.988 215.461 160.035 215.432 160.087 215.401C160.176 215.347 160.277 215.303 160.386 215.269L160.452 215.248L160.496 215.234L160.471 215.206C160.341 215.062 160.159 214.911 159.981 214.784C159.804 214.658 159.629 214.554 159.511 214.504L159.492 214.496L159.471 214.501C159.24 214.561 159.027 214.678 158.882 214.774C158.597 214.964 158.375 215.179 158.216 215.42C158.052 215.658 157.96 215.907 157.938 216.167L157.938 216.167L157.938 216.167C157.921 216.426 157.984 216.681 158.125 216.933C158.264 217.183 158.492 217.415 158.809 217.628C159.148 217.855 159.529 218.013 159.953 218.101ZM163.583 215.254L163.561 215.234L163.528 215.245L163.344 215.31L163.306 215.323L163.326 215.349C163.553 215.65 163.722 215.943 163.691 216.329L163.687 216.378L163.753 216.357L164.488 216.124L164.536 216.108L164.504 216.08L163.583 215.254Z" fill="white" stroke="white" stroke-width="0.0744771"/>
<path d="M168.948 223.518L177.085 218.093L179.311 220.399L171.174 225.824L168.948 223.518Z" fill="white" fill-opacity="0.1"/>
<path d="M178.352 229.838L186.489 224.413L188.715 226.72L180.578 232.144L178.352 229.838Z" fill="white" fill-opacity="0.1"/>
<path d="M191.977 220.76L200.114 215.335L202.34 217.641L194.203 223.066L191.977 220.76Z" fill="white" fill-opacity="0.1"/>
<path d="M176.104 229.141C175.885 228.994 175.885 228.756 176.104 228.61L183.485 223.69C183.704 223.543 184.06 223.544 184.279 223.691C184.498 223.838 184.497 224.076 184.278 224.222L176.897 229.143C176.678 229.289 176.323 229.288 176.104 229.141Z" fill="white" fill-opacity="0.1"/>
<path d="M178.827 216.932L186.964 211.507L189.19 213.813L181.053 219.238L178.827 216.932Z" fill="white" fill-opacity="0.1"/>
<path d="M188.708 210.354L196.845 204.929L199.071 207.235L190.934 212.66L188.708 210.354Z" fill="white" fill-opacity="0.1"/>
<path d="M198.584 203.768L206.722 198.343L208.948 200.649L200.811 206.074L198.584 203.768Z" fill="white" fill-opacity="0.1"/>
</g>
<rect x="0.318764" y="0.000547708" width="54.407" height="37.4176" rx="2.53755" transform="matrix(0.83205 -0.5547 0.830139 0.557556 150.151 216.107)" stroke="#0F0F10" stroke-width="0.383547"/>
<g clip-path="url(#clip2_1_7146)">
<rect width="54.7906" height="37.8011" rx="2.72932" transform="matrix(0.83205 -0.5547 0.830139 0.557556 150.098 215.93)" fill="#4F59DD"/>
<path d="M209.637 207.032L211.176 209.559L210.449 210.044L207.782 208.987C207.617 208.921 207.541 208.909 207.384 208.939C207.129 208.99 206.772 209.115 206.479 209.24L206.418 209.177L207.589 208.397C207.739 208.297 207.972 208.275 208.177 208.367L210.004 209.206L208.913 207.514L209.636 207.032L209.637 207.032ZM214.275 206.333C213.578 205.86 212.566 206.484 212.259 206.269C212.165 206.204 212.155 206.075 212.329 205.925C212.414 205.85 212.676 205.663 213.126 205.552L212.684 205.093C212.458 205.163 212.187 205.267 211.922 205.444C211.242 205.897 211.124 206.459 211.637 206.809C212.014 207.068 212.574 206.98 212.962 206.892C213.36 206.801 213.533 206.797 213.649 206.876C213.825 206.997 213.691 207.19 213.497 207.325C213.156 207.559 212.856 207.627 212.621 207.684L213.079 208.158C213.313 208.1 213.674 207.945 213.986 207.742C214.709 207.26 214.825 206.705 214.275 206.333ZM216.939 205.717L217.576 205.293L214.365 203.88L213.777 204.272C213.645 204.36 213.611 204.485 213.679 204.598L215.107 206.938L215.83 206.457L215.576 206.095L216.459 205.506L216.939 205.717ZM215.23 205.597L214.596 204.686L215.801 205.217L215.23 205.597ZM210.62 206.377L212.706 208.54L212.017 208.998L209.932 206.835L210.62 206.377Z" fill="white"/>
<path d="M215.326 209.63L214.41 209.339L214.251 209.445L215.439 209.811L215.588 209.711L215.051 208.912L214.896 209.015L215.326 209.63ZM216.181 209.316L215.316 208.735L215.167 208.835L216.032 209.416L216.181 209.316ZM216.827 208.886L216.993 208.775L216.441 208.666C216.533 208.566 216.514 208.453 216.39 208.37C216.244 208.272 216.024 208.263 215.857 208.375L215.524 208.596L216.389 209.178L216.537 209.079L216.195 208.849L216.303 208.778L216.827 208.886ZM216.066 208.763L215.801 208.585L215.959 208.48C216.049 208.419 216.161 208.415 216.241 208.469C216.32 208.523 216.314 208.597 216.224 208.657L216.066 208.763ZM217.045 207.767L216.907 207.674L216.197 208.148L216.334 208.241L216.616 208.053L217.343 208.542L217.49 208.444L216.762 207.955L217.045 207.767ZM218.226 207.977C218.409 207.856 218.439 207.686 218.231 207.546L217.667 207.168L217.52 207.266L218.075 207.638C218.197 207.72 218.199 207.809 218.087 207.884C217.977 207.957 217.843 207.957 217.721 207.875L217.166 207.502L217.02 207.599L217.584 207.978C217.792 208.118 218.045 208.098 218.226 207.977ZM219.288 207.245L219.448 207.138L218.246 206.782L218.076 206.895L218.603 207.701L218.759 207.598L218.622 207.398L218.989 207.153L219.288 207.245ZM218.316 206.947L218.802 207.097L218.538 207.273L218.316 206.947ZM220.109 206.698L219.97 206.604L219.572 206.869L218.846 206.382L218.699 206.479L219.565 207.06L220.109 206.698Z" fill="white"/>
<path d="M159.953 218.101L159.953 218.101L159.954 218.101C160.377 218.184 160.797 218.193 161.213 218.129C161.634 218.068 162.003 217.931 162.318 217.721C162.563 217.558 162.797 217.38 162.957 217.178C163.294 216.752 163.421 216.278 163.122 215.698C162.825 215.119 162.106 214.436 160.759 213.588L160.732 213.572L160.703 213.586L159.574 214.123L159.53 214.145L159.57 214.169C160.209 214.557 160.919 215.039 161.341 215.525C161.764 216.012 161.892 216.494 161.399 216.894C161.211 217.047 160.944 217.124 160.694 217.142C160.446 217.155 160.218 217.105 160.008 216.99L160.008 216.99L160.004 216.989C159.982 216.979 159.96 216.966 159.937 216.951L159.863 216.901C159.662 216.766 159.534 216.616 159.479 216.451C159.423 216.285 159.437 216.118 159.522 215.949L159.522 215.949L159.522 215.948C159.607 215.774 159.758 215.614 159.976 215.468C159.988 215.461 160.035 215.432 160.087 215.401C160.176 215.347 160.277 215.303 160.386 215.269L160.452 215.248L160.496 215.234L160.471 215.206C160.341 215.062 160.159 214.911 159.981 214.784C159.804 214.658 159.629 214.554 159.511 214.504L159.492 214.496L159.471 214.501C159.24 214.561 159.027 214.678 158.882 214.774C158.597 214.964 158.375 215.179 158.216 215.42C158.052 215.658 157.96 215.907 157.938 216.167L157.938 216.167L157.938 216.167C157.921 216.426 157.984 216.681 158.125 216.933C158.264 217.183 158.492 217.415 158.809 217.628C159.148 217.855 159.529 218.013 159.953 218.101ZM163.583 215.254L163.561 215.234L163.528 215.245L163.344 215.31L163.306 215.323L163.326 215.349C163.553 215.65 163.722 215.943 163.691 216.329L163.687 216.378L163.753 216.357L164.488 216.124L164.536 216.108L164.504 216.08L163.583 215.254Z" fill="white" stroke="white" stroke-width="0.0744771"/>
<path d="M168.95 223.518L177.087 218.093L179.313 220.399L171.176 225.824L168.95 223.518Z" fill="black" fill-opacity="0.1"/>
<path d="M178.35 229.83L186.487 224.406L188.713 226.712L180.576 232.137L178.35 229.83Z" fill="black" fill-opacity="0.1"/>
<path d="M191.977 220.752L200.114 215.328L202.34 217.634L194.203 223.058L191.977 220.752Z" fill="black" fill-opacity="0.1"/>
<path d="M176.102 229.133C175.883 228.986 175.883 228.749 176.102 228.602L183.483 223.682C183.703 223.536 184.058 223.536 184.277 223.683C184.496 223.83 184.496 224.068 184.276 224.215L176.895 229.135C176.676 229.281 176.321 229.281 176.102 229.133Z" fill="black" fill-opacity="0.1"/>
<path d="M178.827 216.932L186.964 211.507L189.19 213.813L181.053 219.238L178.827 216.932Z" fill="black" fill-opacity="0.1"/>
<path d="M188.706 210.346L196.843 204.921L199.069 207.227L190.932 212.652L188.706 210.346Z" fill="black" fill-opacity="0.1"/>
<path d="M198.586 203.768L206.724 198.343L208.95 200.649L200.813 206.074L198.586 203.768Z" fill="black" fill-opacity="0.1"/>
</g>
<rect x="0.318764" y="0.000547708" width="54.407" height="37.4176" rx="2.53755" transform="matrix(0.83205 -0.5547 0.830139 0.557556 150.151 216.107)" stroke="#171819" stroke-width="0.383547"/>
<path d="M204.998 199.146L189.652 173.908C189.004 172.949 187.132 172.474 185.48 172.846L184.745 173.012L182.59 169.83C181.942 168.87 180.067 168.395 178.417 168.767L132.042 179.232C130.39 179.604 129.573 180.685 130.224 181.645L148.441 208.542C148.632 208.806 148.88 209.025 149.167 209.18L153.355 211.602C154.233 212.11 155.578 212.304 156.802 212.024L203.178 201.559C204.837 201.187 205.647 200.106 204.998 199.146Z" fill="black" stroke="black" stroke-width="0.234007" stroke-miterlimit="10" stroke-linecap="round"/>
<path d="M205.22 189.709L197.376 187.893L186.782 172.249C186.132 171.292 184.26 170.817 182.61 171.189L153.541 177.741L134.191 173.277V183.393C134.195 183.636 134.272 183.872 134.411 184.071L152.629 210.952C153.279 211.911 155.149 212.386 156.801 212.014L203.177 201.549C204.443 201.264 205.217 200.562 205.215 199.815L205.22 189.709Z" fill="white"/>
<path d="M155.053 202V212.135" stroke="#EBE9E9" stroke-width="0.234007" stroke-miterlimit="10"/>
<path d="M134.191 173.281V183.397C134.195 183.641 134.272 183.877 134.411 184.076L152.629 210.956C153.011 211.441 153.545 211.784 154.145 211.93V200.932L135.315 173.532L134.191 173.281Z" fill="#EBE9E9"/>
<path d="M205.22 189.709L197.376 187.893L186.782 172.249C186.132 171.292 184.26 170.817 182.61 171.189L153.541 177.741L134.191 173.277V183.393C134.195 183.636 134.272 183.872 134.411 184.071L152.629 210.952C153.279 211.911 155.149 212.386 156.801 212.014L203.177 201.549C204.443 201.264 205.217 200.562 205.215 199.815L205.22 189.709Z" stroke="black" stroke-width="0.234007" stroke-miterlimit="10" stroke-linecap="round"/>
<path d="M204.998 189.039C205.646 189.996 204.829 191.08 203.177 191.452L156.802 201.914C155.15 202.288 153.28 201.811 152.629 200.854L134.414 173.957C133.766 172.998 134.58 171.917 136.235 171.542L182.606 161.08C184.255 160.708 186.127 161.183 186.778 162.142L204.998 189.039Z" fill="white" stroke="black" stroke-width="0.234007" stroke-miterlimit="10" stroke-linecap="round"/>
<path d="M159.801 174.493C159.799 174.349 159.753 174.209 159.67 174.093L157.563 170.973C157.18 170.409 156.08 170.128 155.109 170.348L150.443 171.408C149.696 171.577 149.242 171.991 149.242 172.429V173.795C149.244 173.939 149.29 174.079 149.373 174.195L151.479 177.315C151.863 177.879 152.963 178.157 153.934 177.94L158.595 176.887C159.34 176.718 159.796 176.304 159.796 175.866V174.502L159.801 174.493Z" fill="#877777" stroke="black" stroke-width="0.234007" stroke-miterlimit="10" stroke-linecap="round"/>
<path d="M152.5 170.938L150.443 171.406C149.696 171.574 149.242 171.988 149.242 172.426V173.792C149.244 173.936 149.29 174.076 149.373 174.193L151.479 177.312C151.736 177.627 152.095 177.842 152.495 177.918L152.5 170.938Z" fill="black"/>
<path d="M159.675 174.092C160.056 174.656 159.576 175.292 158.605 175.51L153.939 176.556C152.968 176.776 151.868 176.495 151.484 175.931L149.378 172.812C148.995 172.248 149.474 171.611 150.448 171.391L155.109 170.341C156.08 170.121 157.18 170.401 157.564 170.965L159.675 174.092Z" fill="white"/>
<path d="M159.801 174.493C159.799 174.349 159.753 174.209 159.67 174.093L157.563 170.973C157.18 170.409 156.08 170.128 155.109 170.348L150.443 171.408C149.696 171.577 149.242 171.991 149.242 172.429V173.795C149.244 173.939 149.29 174.079 149.373 174.195L151.479 177.315C151.863 177.879 152.963 178.157 153.934 177.94L158.595 176.887C159.34 176.718 159.796 176.304 159.796 175.866V174.502L159.801 174.493Z" stroke="black" stroke-width="0.234007" stroke-miterlimit="10" stroke-linecap="round"/>
<path d="M154.519 175.2C156.273 175.2 157.695 174.379 157.695 173.366C157.695 172.353 156.273 171.531 154.519 171.531C152.765 171.531 151.344 172.353 151.344 173.366C151.344 174.379 152.765 175.2 154.519 175.2Z" fill="#EBE9E9"/>
<path d="M154.826 182.639C154.825 182.496 154.78 182.357 154.698 182.241L152.592 179.122C152.21 178.558 151.108 178.277 150.137 178.497L145.475 179.548C144.731 179.716 144.275 180.13 144.277 180.568V181.937C144.278 182.08 144.323 182.22 144.406 182.337L146.512 185.456C146.894 186.02 147.993 186.299 148.965 186.079L153.626 185.028C154.372 184.859 154.826 184.445 154.826 184.008V182.639Z" fill="#877777" stroke="black" stroke-width="0.234007" stroke-miterlimit="10" stroke-linecap="round"/>
<path d="M147.525 179.078L145.468 179.546C144.724 179.715 144.267 180.129 144.27 180.566V181.94C144.271 182.083 144.315 182.223 144.398 182.34L146.504 185.459C146.76 185.775 147.119 185.99 147.518 186.066L147.525 179.078Z" fill="black"/>
<path d="M154.698 182.233C155.079 182.797 154.597 183.434 153.626 183.651L148.965 184.704C147.994 184.922 146.894 184.643 146.512 184.079L144.406 180.96C144.025 180.396 144.505 179.76 145.476 179.54L150.137 178.489C151.108 178.269 152.211 178.55 152.592 179.114L154.698 182.233Z" fill="white"/>
<path d="M149.547 183.31C151.3 183.31 152.722 182.488 152.722 181.475C152.722 180.462 151.3 179.641 149.547 179.641C147.793 179.641 146.371 180.462 146.371 181.475C146.371 182.488 147.793 183.31 149.547 183.31Z" fill="#EBE9E9"/>
<path d="M154.826 182.639C154.825 182.496 154.78 182.357 154.698 182.241L152.592 179.122C152.21 178.558 151.108 178.277 150.137 178.497L145.475 179.548C144.731 179.716 144.275 180.13 144.277 180.568V181.937C144.278 182.08 144.323 182.22 144.406 182.337L146.512 185.456C146.894 186.02 147.993 186.299 148.965 186.079L153.626 185.028C154.372 184.859 154.826 184.445 154.826 184.008V182.639Z" stroke="black" stroke-width="0.234007" stroke-miterlimit="10" stroke-linecap="round"/>
<path d="M195.008 187.689C195.296 188.115 194.933 188.592 194.203 188.758L160.263 196.417C159.533 196.581 158.702 196.371 158.417 195.949C158.131 195.528 158.489 195.046 159.221 194.88L193.167 187.221C193.899 187.055 194.727 187.265 195.008 187.689Z" fill="black" stroke="black" stroke-width="0.234007" stroke-miterlimit="10" stroke-linecap="round"/>
<path d="M171.004 192.806L159.222 195.464C158.903 195.514 158.614 195.68 158.412 195.932C158.698 196.355 159.528 196.566 160.258 196.4L172.041 193.742C172.359 193.691 172.648 193.525 172.85 193.274C172.565 192.852 171.734 192.642 171.004 192.806Z" fill="#ACF1BD" stroke="black" stroke-width="0.234007" stroke-miterlimit="10" stroke-linecap="round"/>
<path d="M178.504 190.547L168.262 192.211V193.402C168.263 193.51 168.296 193.615 168.358 193.704C168.645 194.13 169.474 194.34 170.206 194.172L177.599 192.503C178.158 192.377 178.502 192.066 178.502 191.736L178.504 190.547Z" fill="white" stroke="black" stroke-width="0.234007" stroke-miterlimit="10" stroke-linecap="round"/>
<path d="M178.405 190.244C178.693 190.67 178.33 191.149 177.6 191.313L170.203 192.981C169.471 193.145 168.642 192.935 168.355 192.513C168.067 192.092 168.43 191.61 169.162 191.444L176.552 189.776C177.289 189.609 178.117 189.82 178.405 190.244Z" fill="white" stroke="black" stroke-width="0.234007" stroke-miterlimit="10" stroke-linecap="round"/>
<path d="M186.782 162.142C186.132 161.183 184.26 160.708 182.61 161.08L157.318 166.787L168.408 183.168C170.165 185.763 174.321 186.755 177.874 185.952L199.585 181.055L186.782 162.142Z" fill="white" stroke="black" stroke-width="0.234007" stroke-miterlimit="10" stroke-linecap="round"/>
<path d="M192.58 176.311C193.516 177.68 192.346 179.224 189.982 179.755L177.063 182.671C174.702 183.205 172.032 182.524 171.105 181.155L164.19 170.947C163.254 169.578 164.424 168.034 166.787 167.503L179.709 164.587C182.066 164.056 184.741 164.735 185.667 166.103L192.58 176.311Z" fill="#777777" stroke="black" stroke-width="0.234007" stroke-miterlimit="10" stroke-linecap="round"/>
<path d="M173.783 182.674L177.995 177.266" stroke="black" stroke-width="0.234007" stroke-miterlimit="10" stroke-linecap="round"/>
<path d="M164.07 169.195L177.994 177.262L192.507 178.343" stroke="black" stroke-width="0.234007" stroke-miterlimit="10" stroke-linecap="round"/>
<path d="M177.995 179.346C181.493 179.346 184.329 177.709 184.329 175.689C184.329 173.669 181.493 172.031 177.995 172.031C174.496 172.031 171.66 173.669 171.66 175.689C171.66 177.709 174.496 179.346 177.995 179.346Z" fill="black" stroke="black" stroke-width="0.234007" stroke-miterlimit="10" stroke-linecap="round"/>
<path d="M175.332 174.985C175.332 175.834 176.523 176.522 177.993 176.522C179.462 176.522 180.656 175.834 180.656 174.985V169.148H175.332V174.985Z" fill="#777777" stroke="black" stroke-width="0.234007" stroke-miterlimit="10" stroke-linecap="round"/>
<path d="M177.995 170.77C180.716 170.77 182.923 168.564 182.923 165.842C182.923 163.12 180.716 160.914 177.995 160.914C175.273 160.914 173.066 163.12 173.066 165.842C173.066 168.564 175.273 170.77 177.995 170.77Z" fill="#EBE9E9" stroke="black" stroke-width="0.234007" stroke-miterlimit="10" stroke-linecap="round"/>
<path d="M179.566 163.132C177.678 163.698 176.173 165.507 175.691 167.014C175.242 168.418 174.261 168.28 173.903 167.461C173.542 166.576 173.484 165.596 173.738 164.674C173.992 163.752 174.543 162.94 175.307 162.364C175.935 161.877 176.682 161.569 177.47 161.471C178.259 161.373 179.059 161.49 179.786 161.81C180.755 162.25 180.619 162.814 179.566 163.132Z" fill="black"/>
<path d="M175.359 164.018C175.744 163.471 175.87 162.898 175.641 162.736C175.411 162.575 174.913 162.887 174.529 163.433C174.144 163.979 174.018 164.553 174.247 164.714C174.476 164.876 174.974 164.564 175.359 164.018Z" fill="white"/>
<path d="M131.326 202.51C134.076 200.924 139.775 195.688 132.282 193.682C124.79 191.677 118.359 199.447 118.359 199.447L126.227 200.474C126.227 200.474 128.58 204.101 131.33 202.515L131.326 202.51Z" fill="#0F0F10"/>
<path d="M120.917 193.83L119.304 193.68C119.744 195.253 119.299 196.946 118.14 198.1C118.008 198.237 117.898 198.4 117.827 198.59C117.567 199.295 117.924 200.075 118.629 200.335C118.955 200.454 119.295 200.441 119.594 200.322C121.115 199.731 122.843 200 124.108 201.031L124.786 199.691L120.912 193.825L120.917 193.83Z" fill="#C2C8CF" stroke="#0F0F10" stroke-width="0.440741" stroke-linecap="round" stroke-linejoin="round"/>
<path d="M133.375 188.767C133.067 188.652 132.745 188.661 132.458 188.767C130.964 189.282 129.312 188.992 128.086 187.991C125.574 185.933 122.758 185.241 120.845 186.493C118.126 188.269 118.271 193.302 121.167 197.727C124.062 202.152 128.611 204.298 131.33 202.522C133.234 201.279 133.732 198.441 132.868 195.334C132.868 195.316 132.864 195.303 132.855 195.29C132.428 193.769 132.824 192.134 133.9 190.975C134.019 190.847 134.116 190.697 134.177 190.521C134.437 189.816 134.08 189.036 133.375 188.776V188.767Z" fill="#C2C8CF"/>
<path d="M132.637 201.038C133.404 199.579 133.479 197.521 132.866 195.321C132.866 195.304 132.862 195.291 132.853 195.277C132.426 193.757 132.822 192.122 133.898 190.962C133.964 190.888 134.026 190.804 134.074 190.716C133.677 190.575 133.303 190.583 132.99 190.848C131.637 191.976 129.107 193.951 128.693 197.688C128.278 201.421 131.161 201.866 132.637 201.038Z" fill="#777E87"/>
<path d="M121.449 189.288C121.396 190.456 121.643 192.06 122.577 194.22C123.106 195.436 121.819 196.309 121.088 194.947C120.122 193.153 119.571 190.888 119.959 189.433C120.294 188.186 121.502 188.142 121.449 189.283V189.288Z" fill="#E9EAEB"/>
<path d="M133.375 188.767C133.067 188.652 132.745 188.661 132.458 188.767C130.964 189.282 129.312 188.992 128.086 187.991C125.574 185.933 122.758 185.241 120.845 186.493C118.126 188.269 118.271 193.302 121.167 197.727C124.062 202.152 128.611 204.298 131.33 202.522C133.234 201.279 133.732 198.441 132.868 195.334C132.868 195.316 132.864 195.303 132.855 195.29C132.428 193.769 132.824 192.134 133.9 190.975C134.019 190.847 134.116 190.697 134.177 190.521C134.437 189.816 134.08 189.036 133.375 188.776V188.767Z" stroke="#0F0F10" stroke-width="0.440741" stroke-linecap="round" stroke-linejoin="round"/>
<path d="M81.5615 195.714L77.7109 194.153V192.356L82.286 191.719L81.5615 195.714Z" fill="black" stroke="black" stroke-width="0.321959" stroke-miterlimit="10"/>
<path d="M3.06863 203.187C0.322328 204.774 0.309418 207.344 3.03641 208.928L5.29012 210.238L51.6586 183.467L49.4049 182.157C46.6779 180.573 42.2381 180.573 39.4918 182.157L3.06863 203.187Z" fill="black" stroke="black" stroke-width="0.321959" stroke-miterlimit="10"/>
<path d="M5.28652 200.115C2.72051 201.596 2.7076 203.997 5.25752 205.482L39.0728 225.134C41.6227 226.615 45.7696 226.615 48.3356 225.134L82.373 205.482C84.939 204.001 84.952 201.599 82.402 200.115L48.5867 180.462C46.0368 178.981 41.89 178.981 39.324 180.462L5.28652 200.115Z" fill="white" stroke="black" stroke-width="0.321959" stroke-linecap="round" stroke-linejoin="round"/>
<path d="M5.25822 205.483L39.0735 225.135C41.6234 226.616 45.7703 226.616 48.3363 225.135L82.3737 205.483C83.6648 204.736 84.3087 203.757 84.3087 202.781L84.3377 207.549C84.3377 208.528 83.697 209.507 82.4027 210.251L48.3653 229.903C45.7993 231.384 41.6525 231.384 39.1025 229.903L5.28722 210.251C4.02192 209.513 3.38769 208.551 3.38447 207.585L3.35547 202.817C3.35547 203.783 3.99292 204.745 5.25822 205.483Z" fill="white"/>
<path d="M44.8203 226.172V230.959" stroke="black" stroke-width="0.321959" stroke-miterlimit="10"/>
<path d="M43.8611 231.006C42.1418 231.026 40.4129 230.659 39.1025 229.899L5.28722 210.246C4.02192 209.509 3.38769 208.547 3.38447 207.581L3.35547 202.812C3.35547 203.778 3.99292 204.741 5.25822 205.478L39.0735 225.131C40.3903 225.894 42.129 226.261 43.8579 226.238V231.006H43.8611Z" fill="black"/>
<path d="M5.25822 205.483L39.0735 225.135C41.6234 226.616 45.7703 226.616 48.3363 225.135L82.3737 205.483C83.6648 204.736 84.3087 203.757 84.3087 202.781L84.3377 207.549C84.3377 208.528 83.697 209.507 82.4028 210.251L48.3653 229.903C45.7993 231.384 41.6525 231.384 39.1025 229.903L5.28722 210.251C4.02192 209.513 3.38769 208.551 3.38447 207.585L3.35547 202.817C3.35547 203.783 3.99292 204.745 5.25822 205.483Z" stroke="black" stroke-width="0.321959" stroke-linecap="round" stroke-linejoin="round"/>
<path d="M5.28331 210.248C4.01802 209.511 3.38379 208.548 3.38057 207.582L3.35156 204.672" stroke="white" stroke-width="0.321959" stroke-linecap="round" stroke-linejoin="round"/>
<path d="M43.8598 188.641C30.3279 188.641 19.3555 194.974 19.3555 202.787C19.3555 210.601 30.3279 216.934 43.8598 216.934C57.3917 216.934 68.364 210.601 68.364 202.787C68.364 194.974 57.3917 188.641 43.8598 188.641ZM43.8598 214.046C33.0903 214.046 24.3587 209.004 24.3587 202.787C24.3587 196.57 33.0903 191.529 43.8598 191.529C54.6293 191.529 63.3608 196.57 63.3608 202.787C63.3608 209.004 54.6293 214.046 43.8598 214.046Z" fill="black"/>
<path d="M24.3607 196.922C24.3703 193.803 26.5789 190.982 30.1366 188.947L26.5983 186.906C22.1295 189.469 19.3606 193.014 19.3574 196.938L24.3607 196.926V196.922Z" fill="white" stroke="black" stroke-width="0.321959" stroke-miterlimit="10"/>
<path d="M68.3653 196.952C68.3653 189.138 57.393 182.805 43.8611 182.805C37.1257 182.805 31.0278 184.373 26.5977 186.913L30.136 188.954C33.6614 186.939 38.5069 185.693 43.8611 185.693C54.6306 185.693 63.3622 190.735 63.3622 196.952C63.3622 199.112 62.3061 201.127 60.4806 202.843L64.7305 204.369C67.0357 202.212 68.3653 199.675 68.3653 196.955V196.952Z" fill="#ACF1BD" stroke="black" stroke-width="0.321959" stroke-miterlimit="10"/>
<path d="M43.5356 211.967L39.215 210.235V206.121L26.9387 204.659L24.7461 199.005L32.7597 197.602L43.8608 200.048L48.3199 202.366L53.4197 204.021L52.3058 206.684L45.2806 207.283L43.5356 211.967Z" fill="black" stroke="black" stroke-width="0.321959" stroke-miterlimit="10"/>
<path d="M44.2773 178.812L54.0358 171.008L52.9863 178.242L46.6019 185.477L44.2773 178.812Z" fill="white" stroke="black" stroke-width="0.321959" stroke-linecap="round" stroke-linejoin="round"/>
<path d="M44.2775 178.812L41.4023 198.973L42.9735 201.314L46.602 185.477L44.2775 178.812Z" fill="#ACF1BD" stroke="black" stroke-width="0.321959" stroke-linecap="round" stroke-linejoin="round"/>
<path d="M52.9859 178.242L56.5339 178.661L54.0355 186.851L46.6016 185.477L52.9859 178.242Z" fill="#ACF1BD" stroke="black" stroke-width="0.321959" stroke-linecap="round" stroke-linejoin="round"/>
<path d="M47.5122 203.188L54.0351 186.851L46.6011 185.477L42.9727 201.314L47.5122 203.188Z" fill="black" stroke="black" stroke-width="0.321959" stroke-linecap="round" stroke-linejoin="round"/>
<path d="M54.0359 171.008L56.5343 178.661L52.9863 178.242L54.0359 171.008Z" fill="white" stroke="black" stroke-width="0.321959" stroke-linecap="round" stroke-linejoin="round"/>
<path d="M55.8478 186.168L56.5336 178.656L54.0352 186.847L55.8478 186.168Z" fill="white" stroke="black" stroke-width="0.321959" stroke-linecap="round" stroke-linejoin="round"/>
<path d="M47.5117 203.187L51.6554 200.85L55.8473 186.172L54.0346 186.851L47.5117 203.187Z" fill="white" stroke="black" stroke-width="0.321959" stroke-linecap="round" stroke-linejoin="round"/>
<path d="M27.3398 186.966L29.497 180.086L31.96 177.117L34.6258 184.706L33.0739 191.084L27.3398 186.966Z" fill="#ACF1BD" stroke="black" stroke-width="0.321959" stroke-linecap="round" stroke-linejoin="round"/>
<path d="M27.3398 186.969L36.5833 205.118L39.2137 206.129L33.0739 191.087L27.3398 186.969Z" fill="black" stroke="black" stroke-width="0.321959" stroke-linecap="round" stroke-linejoin="round"/>
<path d="M34.6261 184.703L37.9325 185.749L40.0897 190.54L33.0742 191.081L34.6261 184.703Z" fill="white" stroke="black" stroke-width="0.321959" stroke-linecap="round" stroke-linejoin="round"/>
<path d="M44.0047 205.043L40.0897 190.539L33.0742 191.08L39.214 206.122L44.0047 205.043Z" fill="#ACF1BD" stroke="black" stroke-width="0.321959" stroke-linecap="round" stroke-linejoin="round"/>
<path d="M31.959 177.117L37.9313 185.752L34.6248 184.706L31.959 177.117Z" fill="white" stroke="black" stroke-width="0.321959" stroke-linecap="round" stroke-linejoin="round"/>
<path d="M61.1833 188.867L51.9591 197.602L44.9727 193.758L61.1833 188.867Z" fill="white" stroke="black" stroke-width="0.321959" stroke-linecap="round" stroke-linejoin="round"/>
<path d="M52.3087 206.684L51.9609 197.602L61.1851 188.867L59.997 199.208L57.27 202.843L56.5714 205.847L52.3087 206.684Z" fill="white" stroke="black" stroke-width="0.321959" stroke-linecap="round" stroke-linejoin="round"/>
<path d="M44.9727 193.766L46.5084 200.057L51.9591 197.61L44.9727 193.766Z" fill="#ACF1BD" stroke="black" stroke-width="0.321959" stroke-linecap="round" stroke-linejoin="round"/>
<path d="M45.6016 203.4L46.5095 200.048L51.9602 197.602L52.308 206.684L45.6016 203.4Z" fill="black" stroke="black" stroke-width="0.321959" stroke-linecap="round" stroke-linejoin="round"/>
<path d="M44.9727 193.766L45.6005 203.408L46.5084 200.057L44.9727 193.766Z" fill="black" stroke="black" stroke-width="0.321959" stroke-linecap="round" stroke-linejoin="round"/>
<path d="M41.1816 210.176L42.8333 204.239L48.3194 202.375L47.2474 210.176L44.6395 211.197L41.1816 210.176Z" fill="white" stroke="black" stroke-width="0.321959" stroke-linecap="round" stroke-linejoin="round"/>
<path d="M43.5352 211.972L41.1816 210.172L44.6395 211.192L47.2474 210.172L48.7091 211.273L48.3194 212.442L45.2448 212.535L43.5352 211.972Z" fill="black" stroke="black" stroke-width="0.321959" stroke-linecap="round" stroke-linejoin="round"/>
<path d="M48.3182 202.375L48.9138 206.412L50.1308 207.996L48.7078 211.277L47.2461 210.176L48.3182 202.375Z" fill="white" stroke="black" stroke-width="0.321959" stroke-linecap="round" stroke-linejoin="round"/>
<path d="M43.8598 211.095C52.6814 211.095 60.4117 208.404 64.7291 204.363L60.4792 202.837C57.0472 206.057 50.8881 208.204 43.8598 208.204C33.0903 208.204 24.3587 203.162 24.3587 196.945H19.3555C19.3555 204.759 30.3279 211.092 43.8598 211.092V211.095Z" fill="white" stroke="black" stroke-width="0.321959" stroke-miterlimit="10"/>
<path d="M87.7761 189.764L82.8984 190.868L84.5404 188.164L87.7761 189.764Z" fill="white" stroke="black" stroke-width="0.321959" stroke-linecap="round" stroke-linejoin="round"/>
<path d="M81.5625 195.722L82.8987 190.87L87.7763 189.766L87.4125 194.531L84.9077 195.976L81.5625 195.722Z" fill="white" stroke="black" stroke-width="0.321959" stroke-linecap="round" stroke-linejoin="round"/>
<path d="M84.5419 188.164L80.5625 190.601L82.8999 190.868L84.5419 188.164Z" fill="#ACF1BD" stroke="black" stroke-width="0.321959" stroke-linecap="round" stroke-linejoin="round"/>
<path d="M79.9492 193.261L80.561 190.602L82.8984 190.869L81.5622 195.721L79.9492 193.261Z" fill="black" stroke="black" stroke-width="0.321959" stroke-linecap="round" stroke-linejoin="round"/>
<path d="M73.3359 188.471L75.8536 189.865L74.5948 185.914L73.3359 188.471Z" fill="black" stroke="black" stroke-width="0.321959" stroke-miterlimit="10"/>
<path d="M78.0471 188.255L77.6382 186.204L74.5957 185.914L75.8545 189.865L78.0471 188.255Z" fill="white" stroke="black" stroke-width="0.321959" stroke-linecap="round" stroke-linejoin="round"/>
<defs>
<clipPath id="clip0_1_7146">
<rect width="55.1068" height="34.9304" rx="2.52205" transform="matrix(0.978381 -0.206811 0.564369 0.825522 146.447 194.68)" fill="white"/>
</clipPath>
<clipPath id="clip1_1_7146">
<rect width="54.7906" height="37.8011" rx="2.72932" transform="matrix(0.83205 -0.5547 0.830139 0.557556 150.098 215.93)" fill="white"/>
</clipPath>
<clipPath id="clip2_1_7146">
<rect width="54.7906" height="37.8011" rx="2.72932" transform="matrix(0.83205 -0.5547 0.830139 0.557556 150.098 215.93)" fill="white"/>
</clipPath>
</defs>
</svg>
