<svg width="36" height="36" viewBox="0 0 32 32" fill="none" xmlns="http://www.w3.org/2000/svg">
<path d="M19.9502 16.529C19.9502 15.7746 19.3333 15.3017 18.6163 15.3017H16.3708V11.6604C16.3708 11.3101 16.2811 10.979 16.09 10.7317C15.8953 10.4799 15.6037 10.3266 15.2311 10.3266C14.8576 10.3266 14.5732 10.4807 14.3869 10.7347C14.205 10.9827 14.1254 11.3134 14.1254 11.6604V16.396C14.1254 17.1322 14.7221 17.7298 15.4593 17.7298H18.6163C18.9724 17.7298 19.3044 17.6216 19.5501 17.4141C19.7981 17.2045 19.9502 16.8999 19.9502 16.529Z" fill="#fff" stroke="#A2A3A3" stroke-width="0.3"/>
<path d="M16.0001 6.53125C10.7695 6.53125 6.5293 10.7715 6.5293 16.0021C6.5293 21.2327 10.7695 25.4729 16.0001 25.4729C21.2307 25.4729 25.471 21.2327 25.471 16.0021C25.4653 10.7738 21.2284 6.53691 16.0001 6.53125Z" stroke="#fff" stroke-width="3.68333"/>
</svg>
