<svg width="30" height="24" viewBox="0 0 22 20" fill="none" xmlns="http://www.w3.org/2000/svg">
<path d="M18.809 19.5896C19.3815 20.1093 20.2669 20.0665 20.7866 19.494C21.3063 18.9215 21.2635 18.0361 20.691 17.5164L18.809 19.5896ZM15.8942 8.97522C15.8942 12.3564 13.1532 15.0973 9.7721 15.0973V17.8973C14.6996 17.8973 18.6942 13.9027 18.6942 8.97522H15.8942ZM9.7721 15.0973C6.39094 15.0973 3.64998 12.3564 3.64998 8.97522H0.85002C0.85002 13.9027 4.84457 17.8973 9.7721 17.8973V15.0973ZM3.64998 8.97522C3.64998 5.59407 6.39094 2.85311 9.7721 2.85311V0.0531448C4.84457 0.0531448 0.85002 4.04769 0.85002 8.97522H3.64998ZM9.7721 2.85311C13.1532 2.85311 15.8942 5.59407 15.8942 8.97522H18.6942C18.6942 4.04769 14.6996 0.0531448 9.7721 0.0531448V2.85311ZM14.4727 15.6534L18.809 19.5896L20.691 17.5164L16.3546 13.5802L14.4727 15.6534Z" fill="#fff"/>
</svg>
