<svg width="26" height="26" viewBox="0 0 24 24" fill="none" xmlns="http://www.w3.org/2000/svg">
<rect x="0.00195312" width="23.9961" height="23.9961" rx="11.998" fill="#A2A3A3"/>
<path d="M8.34469 15.65C10.5447 15.65 11.4847 14.15 11.7147 13.17L10.2047 12.74C10.0647 13.25 9.57469 14.07 8.34469 14.07C7.28469 14.07 6.30469 13.3 6.30469 11.97C6.30469 10.48 7.37469 9.8 8.32469 9.8C9.57469 9.8 10.0247 10.63 10.1347 11.12L11.6247 10.65C11.3947 9.63 10.4547 8.26 8.32469 8.26C6.34469 8.26 4.66469 9.76 4.66469 11.97C4.66469 14.18 6.30469 15.65 8.34469 15.65ZM16.0107 15.65C18.2107 15.65 19.1507 14.15 19.3807 13.17L17.8707 12.74C17.7307 13.25 17.2407 14.07 16.0107 14.07C14.9507 14.07 13.9707 13.3 13.9707 11.97C13.9707 10.48 15.0407 9.8 15.9907 9.8C17.2407 9.8 17.6907 10.63 17.8007 11.12L19.2907 10.65C19.0607 9.63 18.1207 8.26 15.9907 8.26C14.0107 8.26 12.3307 9.76 12.3307 11.97C12.3307 14.18 13.9707 15.65 16.0107 15.65Z" fill="white"/>
</svg>
