<svg width="53" height="54" viewBox="0 0 53 54" fill="none" xmlns="http://www.w3.org/2000/svg">
<path d="M26.3312 47.5569C28.3117 47.5569 30.0446 47.3332 31.5299 46.886C33.0153 46.4834 34.2756 46.0362 35.3108 45.5442C36.5261 44.9627 37.5839 44.2918 38.4841 43.5315L42.1975 48.2278C41.0272 49.3012 39.6544 50.2628 38.079 51.1126C36.7287 51.8282 35.0633 52.4768 33.0828 53.0582C31.1473 53.6396 28.8968 53.9304 26.3312 53.9304C22.7754 53.9304 19.3996 53.2147 16.2038 51.7835C13.0531 50.397 10.2624 48.4961 7.83185 46.0809C5.44628 43.6657 3.53333 40.8703 2.09299 37.6947C0.697665 34.4744 0 31.0529 0 27.43C0 23.8072 0.697665 20.408 2.09299 17.2324C3.53333 14.0121 5.44628 11.1944 7.83185 8.77916C10.2624 6.36393 13.0531 4.46307 16.2038 3.07655C19.3996 1.64531 22.7754 0.929688 26.3312 0.929688C30.1121 0.929688 33.6229 1.60058 36.8637 2.94237C40.1495 4.28416 42.9851 6.09558 45.3707 8.37662C47.7563 10.6577 49.6242 13.3189 50.9745 16.3603C52.3248 19.4017 53 22.6443 53 26.0882C53 28.3693 52.6849 30.382 52.0548 32.1263C51.4696 33.8706 50.6595 35.3466 49.6242 36.5542C48.589 37.7171 47.3512 38.6116 45.9108 39.2378C44.4705 39.8639 42.8951 40.177 41.1847 40.177C39.6544 40.177 38.3716 39.9534 37.3363 39.5061C36.3011 39.0589 35.4684 38.5445 34.8382 37.9631C34.118 37.3369 33.5329 36.6213 33.0828 35.8162H32.7452C32.2951 36.6213 31.71 37.3369 30.9898 37.9631C30.3597 38.5445 29.5495 39.0589 28.5592 39.5061C27.614 39.9534 26.4212 40.177 24.9809 40.177C23.4505 40.177 22.0102 39.8863 20.6599 39.3049C19.3096 38.6787 18.1168 37.8289 17.0815 36.7555C16.0913 35.6373 15.3036 34.3179 14.7185 32.7972C14.1333 31.2765 13.8408 29.5992 13.8408 27.7655C13.8408 25.9317 14.1333 24.2545 14.7185 22.7338C15.3036 21.2131 16.0913 19.916 17.0815 18.8426C18.1168 17.7244 19.3096 16.8746 20.6599 16.2932C22.0102 15.667 23.4505 15.3539 24.9809 15.3539C26.0161 15.3539 26.9163 15.4881 27.6815 15.7565C28.4467 16.0248 29.0769 16.3379 29.572 16.6957C30.1571 17.0982 30.6522 17.5455 31.0573 18.0375H31.3949V15.6894H37.8089V30.1136C37.8089 31.2765 38.169 32.2381 38.8892 32.9984C39.6093 33.7588 40.487 34.139 41.5223 34.139C42.8726 34.139 43.9979 33.5575 44.8981 32.3946C45.7983 31.187 46.2484 29.0849 46.2484 26.0882C46.2484 23.4941 45.7533 21.0565 44.7631 18.7755C43.7728 16.4944 42.3775 14.5041 40.5771 12.8045C38.8217 11.1049 36.7287 9.76313 34.2981 8.77916C31.8675 7.79518 29.2119 7.30319 26.3312 7.30319C23.6306 7.30319 21.0875 7.81754 18.7019 8.84624C16.3163 9.87495 14.2459 11.3062 12.4904 13.14C10.735 14.929 9.3397 17.0535 8.30446 19.5135C7.26921 21.9287 6.75159 24.5675 6.75159 27.43C6.75159 30.2925 7.26921 32.9537 8.30446 35.4137C9.3397 37.8289 10.735 39.9534 12.4904 41.7872C14.2459 43.5762 16.3163 44.9851 18.7019 46.0138C21.0875 47.0425 23.6306 47.5569 26.3312 47.5569ZM20.5924 27.7655C20.5924 29.644 21.11 31.1199 22.1452 32.1934C23.1805 33.2668 24.4633 33.8035 25.9936 33.8035C27.524 33.8035 28.8068 33.2668 29.842 32.1934C30.8773 31.1199 31.3949 29.644 31.3949 27.7655C31.3949 25.887 30.8548 24.411 29.7745 23.3376C28.7393 22.2641 27.479 21.7274 25.9936 21.7274C24.4633 21.7274 23.1805 22.2641 22.1452 23.3376C21.11 24.411 20.5924 25.887 20.5924 27.7655Z" fill="#727AE4"/>
</svg>
