<svg width="25" height="24" viewBox="0 0 25 24" fill="none" xmlns="http://www.w3.org/2000/svg">
<path d="M21.3788 11.6088C20.7382 10.0668 19.7725 8.68103 18.5477 7.54607L20.8198 5.27469L19.2263 3.67969L16.6879 6.2189C15.4008 5.5293 13.9611 5.1741 12.501 5.18591C6.10592 5.18591 3.71868 11.3462 3.62313 11.6088L3.47266 12.0015L3.62313 12.3943C4.26379 13.9363 5.22944 15.3221 6.45426 16.457L4.17912 18.7269L5.77563 20.3234L8.31409 17.7842C9.60116 18.4738 11.0409 18.829 12.501 18.8172C18.896 18.8172 21.2833 12.6568 21.3788 12.3943L21.5293 12.0015L21.3788 11.6088ZM5.88924 12.0015C6.45576 10.8316 8.45253 7.42418 12.501 7.42418C13.3575 7.42067 14.2065 7.58449 15.0003 7.90645L13.6762 9.2306C13.1241 8.99626 12.5147 8.9322 11.926 9.04662C11.3373 9.16104 10.7963 9.44873 10.3722 9.87278C9.94816 10.2968 9.66047 10.8379 9.54605 11.4266C9.43163 12.0153 9.4957 12.6247 9.73003 13.1767L8.03572 14.8703C7.14007 14.0631 6.4109 13.0886 5.88924 12.0015ZM12.501 16.5789C11.6444 16.5824 10.7954 16.4186 10.0016 16.0966L11.3258 14.7725C11.8778 15.0068 12.4873 15.0709 13.0759 14.9565C13.6646 14.842 14.2057 14.5544 14.6297 14.1303C15.0538 13.7063 15.3415 13.1652 15.4559 12.5765C15.5703 11.9878 15.5063 11.3784 15.2719 10.8264L16.9662 9.13279C17.8621 9.93983 18.5913 10.9144 19.1127 12.0015C18.5462 13.1715 16.5494 16.5789 12.501 16.5789Z" fill="#727AE4"/>
</svg>
