<svg width="25" height="28" viewBox="0 0 25 28" fill="none" xmlns="http://www.w3.org/2000/svg">
<path d="M2.80639 21.2454C2.84731 21.2074 2.88376 21.1649 2.91503 21.1186L4.49936 18.8372C4.922 18.2317 5.14944 17.5115 5.15119 16.773V10.3814C5.15119 8.46055 5.91425 6.61836 7.27251 5.2601C8.63077 3.90184 10.473 3.13878 12.3938 3.13878C14.3147 3.13878 16.1569 3.90184 17.5151 5.2601C18.8734 6.61836 19.6365 8.46055 19.6365 10.3814V16.773C19.6382 17.5115 19.8657 18.2317 20.2883 18.8372L21.8726 21.1186C21.9039 21.1649 21.9403 21.2074 21.9813 21.2454H2.80639Z" fill="white"/>
<path d="M2.80639 21.2454C2.84731 21.2074 2.88376 21.1649 2.91503 21.1186L4.49936 18.8372C4.922 18.2317 5.14944 17.5115 5.15119 16.773V10.3814C5.15119 8.46055 5.91425 6.61836 7.27251 5.2601C8.63077 3.90184 10.473 3.13878 12.3938 3.13878C14.3147 3.13878 16.1569 3.90184 17.5151 5.2601C18.8734 6.61836 19.6365 8.46055 19.6365 10.3814V16.773C19.6382 17.5115 19.8657 18.2317 20.2883 18.8372L21.8726 21.1186C21.9039 21.1649 21.9403 21.2074 21.9813 21.2454H2.80639Z" fill="white"/>
<path d="M9.52913 25.6601C10.3376 26.3209 11.3497 26.6819 12.3938 26.6819C13.438 26.6819 14.4501 26.3209 15.2585 25.6601C15.5451 25.4259 15.7998 25.1591 16.0185 24.8667H12.3938H8.76911C8.98783 25.1591 9.24257 25.4259 9.52913 25.6601Z" fill="white"/>
<path fill-rule="evenodd" clip-rule="evenodd" d="M23.3212 20.0322L21.773 17.8051C21.5617 17.5024 21.448 17.1423 21.4471 16.773V10.3814C21.4471 7.98034 20.4933 5.67759 18.7955 3.97977C17.0977 2.28195 14.7949 1.32813 12.3938 1.32812C9.99274 1.32813 7.69 2.28195 5.99218 3.97977C4.29436 5.67759 3.34053 7.98034 3.34053 10.3814V16.773C3.33966 17.1423 3.22594 17.5024 3.01461 17.8051L1.4665 20.0322C1.23209 20.292 1.07795 20.614 1.02271 20.9595C0.967473 21.305 1.01351 21.659 1.15524 21.9789C1.29698 22.2988 1.52835 22.5707 1.82137 22.7619C2.1144 22.953 2.45653 23.0552 2.80639 23.056H7.95771H9.8408H14.9469H16.8299H21.9813C22.3311 23.0552 22.6733 22.953 22.9663 22.7619C23.2593 22.5707 23.4907 22.2988 23.6324 21.9789C23.7741 21.659 23.8202 21.305 23.7649 20.9595C23.7097 20.614 23.5556 20.292 23.3212 20.0322ZM2.91503 21.1186C2.88376 21.1649 2.84731 21.2074 2.80639 21.2454H21.9813C21.9403 21.2074 21.9039 21.1649 21.8726 21.1186L20.2883 18.8372C19.8657 18.2317 19.6382 17.5115 19.6365 16.773V10.3814C19.6365 8.46055 18.8734 6.61836 17.5151 5.2601C16.1569 3.90184 14.3147 3.13878 12.3938 3.13878C10.473 3.13878 8.63077 3.90184 7.27251 5.2601C5.91425 6.61836 5.15119 8.46055 5.15119 10.3814V16.773C5.14944 17.5115 4.922 18.2317 4.49936 18.8372L2.91503 21.1186Z" fill="white"/>
<path d="M2.80639 21.2454C2.84731 21.2074 2.88376 21.1649 2.91503 21.1186L4.49936 18.8372C4.922 18.2317 5.14944 17.5115 5.15119 16.773V10.3814C5.15119 8.46055 5.91425 6.61836 7.27251 5.2601C8.63077 3.90184 10.473 3.13878 12.3938 3.13878C14.3147 3.13878 16.1569 3.90184 17.5151 5.2601C18.8734 6.61836 19.6365 8.46055 19.6365 10.3814V16.773C19.6382 17.5115 19.8657 18.2317 20.2883 18.8372L21.8726 21.1186C21.9039 21.1649 21.9403 21.2074 21.9813 21.2454H2.80639Z" stroke="white" stroke-width="0.984516"/>
<path d="M2.80639 21.2454C2.84731 21.2074 2.88376 21.1649 2.91503 21.1186L4.49936 18.8372C4.922 18.2317 5.14944 17.5115 5.15119 16.773V10.3814C5.15119 8.46055 5.91425 6.61836 7.27251 5.2601C8.63077 3.90184 10.473 3.13878 12.3938 3.13878C14.3147 3.13878 16.1569 3.90184 17.5151 5.2601C18.8734 6.61836 19.6365 8.46055 19.6365 10.3814V16.773C19.6382 17.5115 19.8657 18.2317 20.2883 18.8372L21.8726 21.1186C21.9039 21.1649 21.9403 21.2074 21.9813 21.2454H2.80639Z" stroke="white" stroke-width="0.984516"/>
<path d="M9.52913 25.6601C10.3376 26.3209 11.3497 26.6819 12.3938 26.6819C13.438 26.6819 14.4501 26.3209 15.2585 25.6601C15.5451 25.4259 15.7998 25.1591 16.0185 24.8667H12.3938H8.76911C8.98783 25.1591 9.24257 25.4259 9.52913 25.6601Z" stroke="white" stroke-width="0.984516"/>
<path fill-rule="evenodd" clip-rule="evenodd" d="M23.3212 20.0322L21.773 17.8051C21.5617 17.5024 21.448 17.1423 21.4471 16.773V10.3814C21.4471 7.98034 20.4933 5.67759 18.7955 3.97977C17.0977 2.28195 14.7949 1.32813 12.3938 1.32812C9.99274 1.32813 7.69 2.28195 5.99218 3.97977C4.29436 5.67759 3.34053 7.98034 3.34053 10.3814V16.773C3.33966 17.1423 3.22594 17.5024 3.01461 17.8051L1.4665 20.0322C1.23209 20.292 1.07795 20.614 1.02271 20.9595C0.967473 21.305 1.01351 21.659 1.15524 21.9789C1.29698 22.2988 1.52835 22.5707 1.82137 22.7619C2.1144 22.953 2.45653 23.0552 2.80639 23.056H7.95771H9.8408H14.9469H16.8299H21.9813C22.3311 23.0552 22.6733 22.953 22.9663 22.7619C23.2593 22.5707 23.4907 22.2988 23.6324 21.9789C23.7741 21.659 23.8202 21.305 23.7649 20.9595C23.7097 20.614 23.5556 20.292 23.3212 20.0322ZM2.91503 21.1186C2.88376 21.1649 2.84731 21.2074 2.80639 21.2454H21.9813C21.9403 21.2074 21.9039 21.1649 21.8726 21.1186L20.2883 18.8372C19.8657 18.2317 19.6382 17.5115 19.6365 16.773V10.3814C19.6365 8.46055 18.8734 6.61836 17.5151 5.2601C16.1569 3.90184 14.3147 3.13878 12.3938 3.13878C10.473 3.13878 8.63077 3.90184 7.27251 5.2601C5.91425 6.61836 5.15119 8.46055 5.15119 10.3814V16.773C5.14944 17.5115 4.922 18.2317 4.49936 18.8372L2.91503 21.1186Z" stroke="white" stroke-width="0.984516"/>
</svg>
