<svg width="13" height="20" viewBox="0 0 13 20" fill="none" xmlns="http://www.w3.org/2000/svg">
<mask id="path-1-inside-1_430_35564" fill="white">
<path fill-rule="evenodd" clip-rule="evenodd" d="M7.90291 8.14979C6.63107 8.84352 4.78112 9.99974 4.78112 13.4684H8.24977C8.24977 12.3122 8.59664 11.7341 9.63723 11.156C9.7432 11.0924 9.85305 11.0288 9.96536 10.9638C10.4658 10.6742 11.015 10.3563 11.4872 9.88412C12.8746 8.49666 13.2215 6.41547 12.4122 4.4499C11.4872 2.25308 9.17475 0.75 6.51545 0.75C2.12182 0.75 0.387494 4.4499 0.15625 6.41547L3.6249 6.87795C3.6249 6.41547 4.08739 4.21865 6.51545 4.21865C8.01853 4.21865 8.82788 5.028 9.17475 5.83736C9.29037 6.0686 9.52161 6.87795 8.9435 7.45606C8.71226 7.68731 8.36539 7.91855 7.90291 8.14979ZM6.51528 19.2501C7.7929 19.2501 8.82772 18.2152 8.82772 16.9376C8.82772 15.66 7.7929 14.6252 6.51528 14.6252C5.23766 14.6252 4.20285 15.66 4.20285 16.9376C4.20285 18.2152 5.23766 19.2501 6.51528 19.2501Z"/>
</mask>
<path fill-rule="evenodd" clip-rule="evenodd" d="M7.90291 8.14979C6.63107 8.84352 4.78112 9.99974 4.78112 13.4684H8.24977C8.24977 12.3122 8.59664 11.7341 9.63723 11.156C9.7432 11.0924 9.85305 11.0288 9.96536 10.9638C10.4658 10.6742 11.015 10.3563 11.4872 9.88412C12.8746 8.49666 13.2215 6.41547 12.4122 4.4499C11.4872 2.25308 9.17475 0.75 6.51545 0.75C2.12182 0.75 0.387494 4.4499 0.15625 6.41547L3.6249 6.87795C3.6249 6.41547 4.08739 4.21865 6.51545 4.21865C8.01853 4.21865 8.82788 5.028 9.17475 5.83736C9.29037 6.0686 9.52161 6.87795 8.9435 7.45606C8.71226 7.68731 8.36539 7.91855 7.90291 8.14979ZM6.51528 19.2501C7.7929 19.2501 8.82772 18.2152 8.82772 16.9376C8.82772 15.66 7.7929 14.6252 6.51528 14.6252C5.23766 14.6252 4.20285 15.66 4.20285 16.9376C4.20285 18.2152 5.23766 19.2501 6.51528 19.2501Z" fill="white"/>
<path d="M4.78112 13.4684H4.50942V13.7401H4.78112V13.4684ZM7.90291 8.14979L7.78132 7.90662L7.7728 7.91127L7.90291 8.14979ZM8.24977 13.4684V13.7401H8.52147V13.4684H8.24977ZM9.63723 11.156L9.76926 11.3936L9.77702 11.3889L9.63723 11.156ZM9.96536 10.9638L9.82926 10.7286L9.96536 10.9638ZM11.4872 9.88412L11.6793 10.0762L11.4872 9.88412ZM12.4122 4.4499L12.6634 4.34644L12.6626 4.34446L12.4122 4.4499ZM0.15625 6.41547L-0.113588 6.38372L-0.144847 6.64942L0.120341 6.68478L0.15625 6.41547ZM3.6249 6.87795L3.58899 7.14727L3.8966 7.18828V6.87795H3.6249ZM9.17475 5.83736L8.92502 5.94438L8.92816 5.95172L8.93173 5.95886L9.17475 5.83736ZM8.9435 7.45606L9.13562 7.64818L8.9435 7.45606ZM5.05282 13.4684C5.05282 11.7864 5.49988 10.6902 6.08057 9.93397C6.66558 9.1721 7.40315 8.73188 8.03301 8.38832L7.7728 7.91127C7.13083 8.26144 6.3075 8.74619 5.64958 9.60303C4.98734 10.4655 4.50942 11.6817 4.50942 13.4684H5.05282ZM8.24977 13.1967H4.78112V13.7401H8.24977V13.1967ZM9.50529 10.9185C8.9649 11.2187 8.57178 11.5365 8.3203 11.9556C8.06822 12.3757 7.97807 12.8649 7.97807 13.4684H8.52147C8.52147 12.9157 8.60476 12.5377 8.78626 12.2352C8.96836 11.9317 9.26898 11.6714 9.76918 11.3935L9.50529 10.9185ZM9.82926 10.7286C9.71731 10.7934 9.60557 10.8581 9.49745 10.923L9.77702 11.3889C9.88083 11.3267 9.9888 11.2642 10.1015 11.1989L9.82926 10.7286ZM11.2951 9.692C10.8518 10.1353 10.3332 10.437 9.82926 10.7286L10.1015 11.1989C10.5984 10.9113 11.1783 10.5772 11.6793 10.0762L11.2951 9.692ZM12.1609 4.55335C12.9336 6.42974 12.596 8.39105 11.2951 9.692L11.6793 10.0762C13.1533 8.60226 13.5095 6.4012 12.6634 4.34645L12.1609 4.55335ZM6.51545 1.0217C9.07481 1.0217 11.2827 2.46764 12.1617 4.55533L12.6626 4.34446C11.6916 2.03853 9.27468 0.478301 6.51545 0.478301V1.0217ZM0.426088 6.44721C0.53602 5.51279 1.00789 4.14878 1.98053 3.0233C2.94586 1.90627 4.40526 1.0217 6.51545 1.0217V0.478301C4.23201 0.478301 2.62743 1.44368 1.56938 2.66799C0.518641 3.88385 0.00772355 5.35258 -0.113588 6.38372L0.426088 6.44721ZM3.66081 6.60864L0.192159 6.14615L0.120341 6.68478L3.58899 7.14727L3.66081 6.60864ZM6.51545 3.94695C5.20307 3.94695 4.40055 4.54781 3.93607 5.22049C3.48334 5.87617 3.3532 6.59569 3.3532 6.87795H3.8966C3.8966 6.69773 3.99771 6.0876 4.38323 5.52925C4.75702 4.98791 5.39976 4.49035 6.51545 4.49035V3.94695ZM9.42448 5.73033C9.03965 4.83239 8.13901 3.94695 6.51545 3.94695V4.49035C7.89805 4.49035 8.61612 5.22362 8.92502 5.94438L9.42448 5.73033ZM9.13562 7.64818C9.48805 7.29575 9.59097 6.8725 9.59097 6.51663C9.59097 6.16747 9.49282 5.86596 9.41776 5.71585L8.93173 5.95886C8.9723 6.04 9.04758 6.25878 9.04758 6.51663C9.04758 6.76779 8.97707 7.03826 8.75138 7.26394L9.13562 7.64818ZM8.02441 8.39281C8.49969 8.15517 8.87532 7.90848 9.13562 7.64818L8.75138 7.26394C8.5492 7.46613 8.2311 7.68193 7.7814 7.90678L8.02441 8.39281ZM8.55602 16.9376C8.55602 18.0652 7.64285 18.9784 6.51528 18.9784V19.5218C7.94296 19.5218 9.09942 18.3653 9.09942 16.9376H8.55602ZM6.51528 14.8969C7.64285 14.8969 8.55602 15.8101 8.55602 16.9376H9.09942C9.09942 15.5099 7.94296 14.3535 6.51528 14.3535V14.8969ZM4.47455 16.9376C4.47455 15.8101 5.38772 14.8969 6.51528 14.8969V14.3535C5.08761 14.3535 3.93115 15.5099 3.93115 16.9376H4.47455ZM6.51528 18.9784C5.38772 18.9784 4.47455 18.0652 4.47455 16.9376H3.93115C3.93115 18.3653 5.08761 19.5218 6.51528 19.5218V18.9784Z" fill="#171819" mask="url(#path-1-inside-1_430_35564)"/>
</svg>
