<svg width="21" height="22" viewBox="0 0 21 22" fill="none" xmlns="http://www.w3.org/2000/svg">
<path fill-rule="evenodd" clip-rule="evenodd" d="M6.7805 1H3.05988C1.64697 1 0.501953 2.14502 0.501953 3.55793V7.27855C0.501953 7.66363 0.814485 7.97617 1.19957 7.97617C1.58465 7.97617 1.89719 7.66363 1.89719 7.27855V3.55793C1.89719 2.91612 2.41807 2.39523 3.05988 2.39523H6.7805C7.16559 2.39523 7.47812 2.0827 7.47812 1.69762C7.47812 1.31253 7.16559 1 6.7805 1Z" fill="white" stroke="white"/>
<path fill-rule="evenodd" clip-rule="evenodd" d="M6.7805 19.6044H3.05988C2.41807 19.6044 1.89719 19.0835 1.89719 18.4417V14.7211C1.89719 14.336 1.58465 14.0234 1.19957 14.0234C0.814485 14.0234 0.501953 14.336 0.501953 14.7211V18.4417C0.501953 19.8546 1.64697 20.9996 3.05988 20.9996H6.7805C7.16559 20.9996 7.47812 20.6871 7.47812 20.302C7.47812 19.9169 7.16559 19.6044 6.7805 19.6044Z" fill="white" stroke="white"/>
<path fill-rule="evenodd" clip-rule="evenodd" d="M20.4996 7.27855V3.55793C20.4996 2.14502 19.3546 1 17.9417 1H14.2211C13.836 1 13.5234 1.31253 13.5234 1.69762C13.5234 2.0827 13.836 2.39523 14.2211 2.39523H17.9417C18.5835 2.39523 19.1044 2.91612 19.1044 3.55793V7.27855C19.1044 7.66363 19.4169 7.97617 19.802 7.97617C20.1871 7.97617 20.4996 7.66363 20.4996 7.27855Z" fill="white" stroke="white"/>
<path fill-rule="evenodd" clip-rule="evenodd" d="M19.1044 14.7211V18.4417C19.1044 19.0835 18.5835 19.6044 17.9417 19.6044H14.2211C13.836 19.6044 13.5234 19.9169 13.5234 20.302C13.5234 20.6871 13.836 20.9996 14.2211 20.9996H17.9417C19.3546 20.9996 20.4996 19.8546 20.4996 18.4417V14.7211C20.4996 14.336 20.1871 14.0234 19.802 14.0234C19.4169 14.0234 19.1044 14.336 19.1044 14.7211Z" fill="white" stroke="white"/>
<path fill-rule="evenodd" clip-rule="evenodd" d="M13.5234 6.18199V7.11215C13.5234 7.49723 13.836 7.80976 14.2211 7.80976C14.6061 7.80976 14.9187 7.49723 14.9187 7.11215V6.18199C14.9187 5.79691 14.6061 5.48438 14.2211 5.48438C13.836 5.48438 13.5234 5.79691 13.5234 6.18199Z" fill="white" stroke="white" stroke-width="0.834555"/>
<path fill-rule="evenodd" clip-rule="evenodd" d="M6.08203 6.18199V7.11215C6.08203 7.49723 6.39456 7.80976 6.77965 7.80976C7.16473 7.80976 7.47726 7.49723 7.47726 7.11215V6.18199C7.47726 5.79691 7.16473 5.48438 6.77965 5.48438C6.39456 5.48438 6.08203 5.79691 6.08203 6.18199Z" fill="white" stroke="white" stroke-width="0.834555"/>
<path fill-rule="evenodd" clip-rule="evenodd" d="M9.85487 8.44914L10.6139 10.3476L10.0093 10.9522C9.73674 11.2247 9.73674 11.6665 10.0093 11.9391C10.2809 12.2116 10.7236 12.2116 10.9952 11.9391L11.9254 11.0089C12.1226 10.8117 12.184 10.5159 12.0798 10.2564L11.1496 7.93104C11.0073 7.57386 10.6009 7.39899 10.2427 7.54224C9.88556 7.68548 9.71163 8.09196 9.85487 8.44914Z" fill="white" stroke="white" stroke-width="0.834555"/>
<path fill-rule="evenodd" clip-rule="evenodd" d="M6.89872 15.3115L7.38519 15.5896C9.31526 16.6928 11.6853 16.6928 13.6154 15.5896L14.1018 15.3115C14.4367 15.1199 14.553 14.6939 14.3614 14.359C14.1707 14.0251 13.7437 13.9088 13.4098 14.0995L12.9233 14.3776C11.4221 15.2362 9.5785 15.2362 8.07723 14.3776L7.59075 14.0995C7.25683 13.9088 6.82989 14.0251 6.6392 14.359C6.44759 14.6939 6.56386 15.1199 6.89872 15.3115Z" fill="white" stroke="white" stroke-width="0.834555"/>
</svg>
