<svg width="19" height="18" viewBox="0 0 19 18" fill="none" xmlns="http://www.w3.org/2000/svg">
<path d="M16.4094 17.4642C16.9203 17.9285 17.7109 17.8906 18.1751 17.3797C18.6394 16.8687 18.6015 16.0782 18.0906 15.6139L16.4094 17.4642ZM13.0345 7.72039C13.0345 10.4913 10.7882 12.7376 8.01726 12.7376V15.2376C12.1689 15.2376 15.5345 11.8721 15.5345 7.72039H13.0345ZM8.01726 12.7376C5.2463 12.7376 3 10.4913 3 7.72039H0.5C0.5 11.8721 3.86559 15.2376 8.01726 15.2376V12.7376ZM3 7.72039C3 4.94943 5.2463 2.70312 8.01726 2.70312V0.203125C3.86559 0.203125 0.5 3.56872 0.5 7.72039H3ZM8.01726 2.70312C10.7882 2.70312 13.0345 4.94943 13.0345 7.72039H15.5345C15.5345 3.56872 12.1689 0.203125 8.01726 0.203125V2.70312ZM11.8771 13.346L16.4094 17.4642L18.0906 15.6139L13.5583 11.4957L11.8771 13.346Z" fill="#454647"/>
</svg>
