<svg width="25" height="24" viewBox="0 0 25 24" fill="none" xmlns="http://www.w3.org/2000/svg">
<path d="M21.3788 11.6112C21.281 11.3486 18.896 5.1875 12.501 5.1875C6.10592 5.1875 3.71793 11.3486 3.62313 11.6112L3.47266 12.0039L3.62313 12.3966C3.72094 12.6592 6.10592 18.8203 12.501 18.8203C18.896 18.8203 21.284 12.6592 21.3788 12.3966L21.5293 12.0039L21.3788 11.6112ZM12.501 16.582C8.42469 16.582 6.45125 13.1858 5.88773 12.0039C6.45276 10.8189 8.42695 7.42577 12.501 7.42577C16.575 7.42577 18.5485 10.8182 19.1142 12.0039C18.5485 13.1896 16.575 16.582 12.501 16.582Z" fill="#727AE4"/>
<path d="M12.501 15.0133C14.163 15.0133 15.5104 13.6659 15.5104 12.0038C15.5104 10.3418 14.163 8.9944 12.501 8.9944C10.8389 8.9944 9.49154 10.3418 9.49154 12.0038C9.49154 13.6659 10.8389 15.0133 12.501 15.0133Z" fill="#727AE4"/>
</svg>
